<?xml version="1.0" standalone="no"?>
<!DOCTYPE svg PUBLIC "-//W3C//DTD SVG 20010904//EN"
 "http://www.w3.org/TR/2001/REC-SVG-20010904/DTD/svg10.dtd">
<svg version="1.0" xmlns="http://www.w3.org/2000/svg"
 width="1028.000000pt" height="1028.000000pt" viewBox="0 0 1028.000000 1028.000000"
 preserveAspectRatio="xMidYMid meet">
<metadata>
Created by potrace 1.11, written by Peter Selinger 2001-2013
</metadata>
<g transform="translate(0.000000,1028.000000) scale(0.100000,-0.100000)"
fill="#000000" stroke="none">
<path d="M4655 10169 c-472 -21 -982 -104 -1271 -207 -372 -133 -563 -311
-644 -603 -43 -157 -50 -267 -50 -825 l0 -524 1205 0 1205 0 0 -205 0 -205
-1787 -3 c-1763 -3 -1789 -3 -1888 -24 -521 -108 -913 -454 -1093 -965 -41
-114 -93 -329 -136 -558 -62 -333 -86 -566 -86 -843 0 -145 3 -181 15 -193 15
-16 21 -39 8 -31 -25 15 -4 -227 23 -268 10 -15 12 -25 5 -25 -17 0 -13 -47 4
-54 17 -6 21 -36 5 -36 -13 0 -13 -47 1 -55 6 -4 8 -14 5 -22 -11 -28 5 -91
25 -96 18 -5 28 -37 12 -37 -5 0 -9 -16 -10 -35 -3 -38 10 -45 47 -25 10 6 21
6 24 2 8 -13 -9 -33 -25 -30 -43 9 22 -346 109 -588 141 -393 383 -684 677
-812 196 -85 258 -92 801 -92 l444 0 0 123 0 122 -51 -58 c-52 -58 -91 -79
-68 -36 9 17 8 23 -2 30 -8 5 -11 9 -7 9 4 0 -5 12 -19 26 l-27 27 30 24 c16
13 34 27 39 32 6 4 32 16 58 26 26 10 47 22 47 26 0 5 -29 7 -65 3 -72 -6
-117 2 -94 17 11 7 9 9 -7 9 -30 0 -35 9 -18 34 8 13 11 25 8 29 -4 3 6 4 21
1 15 -3 56 -6 91 -7 l64 -2 0 197 c0 148 -3 198 -12 201 -10 4 -10 6 0 6 10 1
10 5 -2 17 -9 8 -16 21 -16 27 0 7 4 6 10 -3 5 -8 10 -10 10 -5 0 6 -5 17 -10
25 -6 10 -4 20 5 30 9 10 14 49 17 117 3 97 2 102 -18 107 -12 3 -24 15 -27
27 -4 16 -10 19 -28 14 -18 -6 -21 -4 -16 10 4 9 7 19 7 21 0 10 40 2 53 -11
13 -13 17 -12 31 10 9 13 16 32 16 42 0 10 7 49 15 87 8 38 12 72 9 75 -3 3
-13 0 -24 -7 -17 -10 -18 -9 -14 14 2 13 -1 34 -7 45 -8 15 -8 19 0 15 6 -4
11 -1 11 8 0 21 -19 30 -26 13 -4 -12 -12 -13 -42 -4 -43 13 -52 23 -52 59 0
15 -5 30 -10 33 -6 4 -8 10 -5 14 2 5 -4 16 -15 26 -26 23 -25 46 1 79 15 19
18 31 11 38 -12 12 -6 19 45 55 17 13 50 27 73 32 36 8 45 6 62 -11 11 -11 26
-17 34 -14 12 5 14 -1 9 -27 l-6 -32 50 0 51 1 37 59 c243 393 630 663 1073
748 101 19 157 20 1480 26 l1375 6 97 27 c54 15 128 42 165 60 63 30 69 36 80
76 10 36 10 44 -2 49 -25 9 -17 30 16 43 25 11 32 11 39 0 7 -11 11 -11 24 0
14 11 20 10 39 -6 12 -11 25 -23 28 -27 8 -11 91 57 162 132 52 54 58 64 52
91 -4 19 -3 30 4 30 6 0 11 -4 11 -10 0 -24 19 -5 67 68 84 124 138 262 175
441 15 74 23 2396 9 2562 -13 157 -42 263 -106 394 -151 311 -442 555 -805
674 -162 53 -367 88 -705 120 -409 40 -717 48 -1130 30z m-840 -644 c118 -31
227 -112 297 -219 106 -164 106 -388 0 -552 -169 -261 -524 -312 -752 -107
-177 158 -222 412 -112 628 33 65 143 175 210 209 109 55 242 71 357 41z
m-1375 -2267 c0 -6 -7 -5 -15 2 -8 7 -15 17 -15 22 0 6 7 5 15 -2 8 -7 15 -17
15 -22z m-682 -139 c-1 -17 -6 -33 -10 -35 -10 -7 -22 42 -14 62 9 25 26 6 24
-27z m-103 -61 c22 -18 36 -15 17 4 -19 19 -14 30 9 17 20 -10 21 -9 16 10 -7
28 3 26 31 -4 15 -15 25 -40 27 -63 3 -37 16 -68 42 -102 6 -8 13 -26 15 -40
1 -14 10 -25 18 -25 11 0 14 -10 12 -33 -2 -34 7 -39 39 -22 14 8 19 7 19 -1
0 -6 15 -24 33 -40 29 -26 30 -29 10 -29 -13 0 -31 -13 -43 -30 -21 -30 -50
-41 -50 -19 0 8 -5 8 -15 -1 -8 -7 -15 -17 -15 -22 0 -28 -67 -68 -104 -62
-29 5 -154 29 -202 39 -20 4 -80 53 -73 60 2 2 24 -1 49 -6 109 -24 107 -24
87 -1 -10 11 -32 26 -48 33 -18 7 -28 17 -25 25 5 14 -48 64 -68 64 -7 0 -21
9 -31 20 -17 18 -17 20 -2 14 10 -3 17 -1 17 5 0 6 5 11 11 11 5 0 7 -4 4 -10
-3 -6 1 -7 9 -4 10 4 16 1 16 -7 0 -10 3 -10 11 -2 12 12 38 6 54 -13 6 -6 24
-14 42 -17 18 -4 51 -20 74 -37 23 -16 46 -30 51 -30 5 0 8 19 6 42 -3 40 -5
43 -42 50 -47 10 -140 65 -180 107 -39 40 -27 49 21 17 37 -26 58 -20 31 8
-38 40 -48 59 -48 92 l0 36 42 -31 c23 -17 47 -31 53 -31 12 0 45 -35 45 -48
0 -4 14 -13 30 -19 17 -6 30 -8 30 -5 -1 15 -28 42 -42 42 -8 0 -26 12 -39 28
-81 92 -94 131 -19 57 56 -55 62 -54 25 5 -33 52 -32 60 3 18 15 -18 36 -40
47 -50z m613 -4 c2 3 17 -3 32 -14 35 -25 36 -25 62 0 15 13 36 20 64 20 35 0
47 -5 72 -35 20 -22 33 -50 37 -80 4 -25 12 -45 17 -45 6 0 8 9 5 20 -3 11 -2
18 3 15 4 -3 13 9 21 26 12 29 13 30 26 13 10 -13 13 -14 13 -3 1 20 33 -41
36 -69 1 -13 7 -29 13 -36 17 -20 20 -155 4 -195 -20 -51 -16 -68 23 -106 21
-21 34 -41 30 -50 -3 -8 -1 -17 5 -20 5 -4 7 -11 4 -16 -4 -5 -2 -9 4 -9 5 0
15 8 20 18 6 9 11 11 11 5 0 -17 15 -16 33 2 13 13 18 12 40 -5 14 -11 30 -20
35 -20 12 0 26 -55 18 -68 -3 -5 5 -19 18 -31 20 -19 29 -21 58 -13 29 8 36 6
52 -15 10 -14 21 -37 25 -51 4 -15 17 -31 29 -37 12 -5 23 -17 23 -25 1 -8 2
-29 3 -46 l1 -32 -24 19 c-29 23 -39 24 -61 4 -10 -9 -37 -16 -64 -17 -25 0
-46 -4 -46 -9 0 -15 35 -84 55 -107 17 -20 21 -21 31 -8 9 13 15 12 45 -8 19
-13 45 -27 59 -31 44 -13 57 -32 58 -86 1 -58 -12 -99 -30 -99 -7 0 -28 14
-47 30 -18 17 -39 30 -46 30 -14 0 -39 28 -49 54 -5 16 -4 17 9 6 13 -10 15
-9 15 7 0 33 -30 65 -55 59 -32 -8 -55 2 -55 24 0 11 -4 22 -10 25 -17 10 -12
45 7 45 14 0 12 4 -7 25 -14 15 -35 25 -51 25 -15 0 -31 5 -34 10 -3 6 -11 10
-17 10 -7 0 -7 -4 -1 -12 10 -12 14 -48 6 -48 -2 0 -15 7 -28 16 -15 10 -25
12 -25 5 0 -24 -73 2 -117 42 -38 34 -44 127 -7 96 22 -18 17 4 -8 37 -16 20
-30 28 -45 26 -17 -2 -26 3 -32 22 -6 13 -16 23 -23 22 -41 -8 -68 -19 -68
-27 0 -5 -7 -9 -15 -9 -20 0 -19 5 5 38 29 40 18 72 -26 72 -26 0 -32 4 -28
15 4 8 12 15 20 15 8 0 14 7 14 16 0 8 -4 13 -9 10 -12 -8 -71 48 -71 66 0 14
-18 26 -65 44 -19 7 -19 8 3 12 15 2 22 9 18 18 -3 8 -1 14 5 14 6 0 7 5 2 13
-4 6 -8 17 -8 22 0 6 -11 11 -25 13 -20 2 -22 1 -10 -7 10 -7 11 -11 3 -11
-13 0 -33 30 -33 49 0 6 7 11 15 11 8 0 14 -5 13 -12 -2 -6 6 -14 17 -16 16
-4 17 -2 7 11 -10 12 -10 16 3 21 9 3 13 2 10 -3 -3 -5 -1 -12 4 -15 5 -4 8 5
6 20 -3 33 -52 84 -73 77 -10 -5 -13 -2 -8 6 6 8 2 11 -10 9 -23 -4 -32 -22
-33 -64 -1 -39 -28 -64 -66 -61 -30 2 -33 -2 -19 -37 6 -15 4 -18 -7 -14 -9 3
-25 -5 -39 -19 -12 -13 -29 -22 -36 -19 -16 6 -25 -29 -11 -43 7 -7 2 -13 -17
-21 -38 -14 -54 -12 -32 5 10 7 15 18 12 23 -3 5 1 15 9 22 15 12 9 44 -6 34
-14 -8 2 48 18 64 7 7 13 17 13 21 0 5 15 5 33 1 36 -7 90 7 81 21 -3 6 -12 5
-21 -3 -15 -12 -15 -11 -2 10 8 13 30 33 49 45 19 11 38 26 42 31 13 18 9 28
-8 22 -8 -3 -25 1 -38 9 -12 8 -26 12 -29 8 -4 -3 -7 -2 -7 4 0 6 7 14 16 17
9 4 14 9 11 13 -4 3 -2 12 3 18 14 16 -17 30 -35 15 -14 -12 -26 -3 -19 15 3
8 -4 18 -15 25 -12 6 -21 18 -21 27 0 9 3 14 6 11 3 -4 14 2 25 13 19 19 55
27 45 11 -6 -10 29 -43 82 -80 l34 -23 -7 31 -7 31 36 -21 c38 -21 66 -26 66
-12 0 13 -77 92 -90 92 -6 0 -14 -8 -17 -17 -6 -15 -8 -14 -13 7 -10 38 -2 43
37 20 20 -11 38 -19 41 -16z m-478 4 c0 -6 -6 -5 -15 2 -8 7 -15 14 -15 16 0
2 7 1 15 -2 8 -4 15 -11 15 -16z m380 2 c0 -5 -4 -10 -10 -10 -5 0 -10 5 -10
10 0 6 5 10 10 10 6 0 10 -4 10 -10z m-180 -20 c0 -5 7 -10 15 -10 8 0 15 -5
15 -11 0 -5 -5 -7 -10 -4 -6 4 -13 -8 -17 -25 -6 -32 -24 -47 -43 -35 -6 3 -7
12 -3 18 9 15 9 49 -1 65 -5 8 1 12 18 12 14 0 26 -4 26 -10z m-92 -47 c-2
-11 -14 -18 -32 -20 -27 -2 -28 -1 -11 18 22 24 48 25 43 2z m18 -132 c35 -19
33 -28 -7 -36 -15 -3 -19 0 -15 10 3 8 -2 21 -10 30 -20 20 -11 19 32 -4z
m144 -1 c0 -13 -7 -20 -20 -20 -25 0 -26 16 -2 29 23 14 22 14 22 -9z m2504
-76 c14 -5 17 -4 12 4 -14 23 5 32 35 17 16 -9 29 -12 29 -8 0 5 4 2 9 -6 10
-16 -4 -48 -30 -68 -9 -7 -20 -24 -23 -38 -4 -14 -13 -25 -20 -25 -9 0 -12 -7
-9 -18 4 -16 -5 -21 -53 -30 -84 -17 -99 -15 -112 13 -8 17 -8 25 -1 25 17 0
41 29 34 40 -4 6 -1 18 6 26 10 13 10 17 -2 25 -10 7 -6 9 16 7 25 -2 31 1 33
20 2 13 -3 25 -12 28 -9 3 -16 10 -16 14 0 7 56 -7 104 -26z m1490 7 c3 -5 -1
-11 -9 -15 -15 -6 -29 7 -18 18 9 9 21 8 27 -3z m-4729 -11 c3 -5 1 -10 -4
-10 -6 0 -11 5 -11 10 0 6 2 10 4 10 3 0 8 -4 11 -10z m895 -18 c0 -15 -2 -15
-10 -2 -13 20 -13 33 0 25 6 -3 10 -14 10 -23z m3353 -29 c-7 -2 -19 -2 -25 0
-7 3 -2 5 12 5 14 0 19 -2 13 -5z m-4020 -125 c18 -9 23 -43 7 -53 -16 -10
-12 -21 12 -32 l22 -10 -27 -17 c-16 -11 -48 -19 -82 -20 -46 -1 -55 2 -55 17
0 9 -6 17 -12 18 -39 2 -74 12 -92 25 -20 14 -20 14 7 15 15 1 32 3 37 4 6 1
19 3 30 4 34 2 22 22 -22 39 l-43 17 45 6 c53 7 148 0 173 -13z m1712 -8 c3
-5 2 -10 -4 -10 -5 0 -13 5 -16 10 -3 6 -2 10 4 10 5 0 13 -4 16 -10z m-1459
-54 c-4 -17 -13 -26 -26 -26 -11 0 -20 5 -20 10 0 6 -11 10 -25 10 -14 0 -25
5 -25 10 0 6 7 10 15 10 8 0 15 5 15 10 0 6 10 15 23 19 30 12 52 -9 43 -43z
m1024 8 c0 -1 -9 -4 -20 -7 -16 -4 -20 0 -20 19 0 23 1 23 20 7 11 -10 20 -18
20 -19z m-1140 -9 c-7 -9 -15 -13 -17 -11 -7 7 7 26 19 26 6 0 6 -6 -2 -15z
m3400 -20 c0 -8 -7 -15 -15 -15 -8 0 -15 7 -15 15 0 8 7 15 15 15 8 0 15 -7
15 -15z m-1750 -46 c0 -6 -4 -7 -10 -4 -5 3 -10 11 -10 16 0 6 5 7 10 4 6 -3
10 -11 10 -16z m1853 -27 c8 -39 -19 -92 -46 -92 -29 0 -68 29 -49 36 6 3 12
20 12 39 0 63 71 78 83 17z m-3543 24 c0 -22 -25 -26 -38 -5 -11 17 -9 19 13
19 15 0 25 -6 25 -14z m89 -7 c-22 -14 -33 -10 -19 6 7 8 17 12 22 9 6 -4 5
-10 -3 -15z m-49 -39 c0 -5 -4 -10 -10 -10 -5 0 -10 5 -10 10 0 6 5 10 10 10
6 0 10 -4 10 -10z m-110 -19 c0 -13 -29 -35 -37 -28 -7 8 15 37 28 37 5 0 9
-4 9 -9z m3995 -20 c-3 -6 -11 -11 -17 -11 -6 0 -6 6 2 15 14 17 26 13 15 -4z
m-506 -6 c31 -15 48 -44 28 -46 -9 0 -9 -2 1 -6 6 -2 12 -11 12 -19 0 -10 -10
-14 -35 -12 -32 2 -35 5 -35 34 0 18 -5 36 -10 39 -10 6 -5 25 6 25 3 0 18 -7
33 -15z m-3459 -204 c0 -6 -4 -13 -10 -16 -5 -3 -10 1 -10 9 0 9 5 16 10 16 6
0 10 -4 10 -9z m3396 -56 c7 -17 -12 -45 -30 -45 -7 0 -6 4 2 9 10 6 8 10 -9
14 -19 5 -20 8 -9 21 16 20 39 20 46 1z m1993 -117 c-7 -17 -19 -28 -30 -28
-25 0 -24 23 3 65 22 32 23 33 31 12 4 -12 3 -33 -4 -49z m-1881 23 c17 -38 0
-81 -29 -74 -12 3 -19 0 -19 -8 0 -10 -3 -10 -12 -1 -20 20 14 111 42 112 3 0
11 -13 18 -29z m2083 -80 c-22 -22 -41 -27 -41 -12 0 15 54 54 58 42 2 -5 -6
-19 -17 -30z m-3967 -2 c-3 -5 0 -9 5 -9 6 0 11 -7 11 -15 0 -8 -4 -15 -8 -15
-11 0 -37 30 -45 52 -5 15 -3 16 18 6 13 -6 22 -15 19 -19z m-2429 1 c9 -15
27 -12 19 3 -3 6 22 -16 57 -51 64 -64 83 -69 55 -13 -9 16 -16 34 -16 38 1 4
8 -5 17 -22 22 -41 44 -66 54 -59 5 3 7 8 5 12 -2 4 2 13 10 20 11 10 15 8 19
-15 4 -16 18 -52 33 -81 22 -42 24 -54 13 -61 -10 -6 -6 -13 18 -27 17 -10 31
-22 31 -27 0 -5 11 -6 24 -3 14 3 28 2 31 -4 10 -16 28 -11 21 6 -3 8 -2 12 4
9 6 -3 10 -2 10 3 0 5 -10 13 -22 17 -20 6 -21 8 -5 12 36 9 64 -50 66 -137 1
-37 8 -63 20 -80 24 -31 13 -56 -35 -76 -37 -16 -48 -40 -13 -29 19 6 21 4 16
-14 -3 -12 1 -38 9 -56 20 -48 18 -49 -21 -10 -20 21 -40 32 -49 29 -18 -7
-66 23 -66 42 0 8 7 14 15 14 13 0 13 3 3 21 -10 16 -20 19 -45 14 -20 -4 -33
-2 -33 5 0 5 -7 10 -15 10 -8 0 -15 5 -15 10 0 18 -25 11 -38 -11 -12 -19 -11
-20 7 -14 21 6 34 -5 23 -22 -11 -16 -124 -73 -134 -67 -5 3 -1 15 9 27 17 19
17 20 0 14 -9 -4 -45 -9 -80 -13 -55 -5 -60 -4 -42 8 11 8 40 23 65 33 25 10
52 25 61 32 8 7 18 13 22 13 4 0 20 8 36 18 21 12 27 22 21 31 -6 11 -21 5
-69 -27 -60 -40 -162 -72 -228 -72 -16 0 -37 -6 -48 -13 -11 -8 -34 -19 -52
-25 -26 -9 -34 -8 -45 6 -11 13 -11 14 2 7 13 -8 13 -6 2 8 -16 19 -8 53 14
61 8 3 13 10 9 16 -4 6 -15 6 -31 0 -33 -13 -47 -13 -39 0 3 6 -1 10 -11 10
-13 0 -14 3 -4 15 7 8 11 15 9 16 -2 0 -14 2 -26 3 -13 2 -26 5 -29 9 -10 10
5 39 17 32 6 -4 20 2 33 14 12 11 31 22 41 24 11 1 26 7 34 11 9 6 12 5 7 -2
-3 -6 1 -9 11 -7 10 2 25 4 33 4 13 1 13 3 0 10 -8 6 -18 7 -24 4 -5 -4 -6 -1
-1 7 6 10 4 12 -9 7 -10 -4 -15 -3 -11 3 3 6 19 10 34 10 35 0 91 19 91 31 0
4 7 6 15 3 8 -4 15 -1 15 5 0 6 10 11 23 11 12 0 36 9 52 20 26 18 40 20 110
15 74 -6 78 -5 61 9 -11 9 -30 16 -42 16 -13 0 -29 8 -36 18 -7 9 -24 23 -39
30 -31 16 -92 72 -85 79 2 2 13 0 24 -6 11 -6 27 -8 36 -5 12 5 13 11 3 32 -6
15 -20 37 -31 50 -17 19 -17 22 -3 22 9 0 19 -4 22 -10z m3955 -70 c0 -5 -5
-10 -11 -10 -5 0 -7 5 -4 10 3 6 8 10 11 10 2 0 4 -4 4 -10z m-2115 -21 c5 -5
-1 -9 -18 -9 -15 0 -27 4 -27 9 0 5 -10 12 -22 14 -13 2 -5 2 17 0 22 -2 44
-8 50 -14z m-180 1 c3 -5 1 -10 -6 -10 -10 0 -10 -3 -1 -12 17 -17 15 -35 -4
-42 -8 -3 -12 -2 -9 4 3 6 -1 10 -10 10 -11 0 -15 -5 -12 -14 7 -17 -13 -26
-53 -26 -31 0 -53 19 -23 21 14 0 15 2 3 6 -15 6 -39 33 -40 44 -1 19 144 37
155 19z m200 -30 c17 -4 -48 -18 -87 -19 -41 -1 -52 15 -15 22 19 4 73 2 102
-3z m5 -29 c0 -5 -7 -14 -15 -21 -16 -14 -18 -10 -9 14 6 17 24 22 24 7z
m-2050 -480 c0 -6 -5 -13 -10 -16 -15 -9 -43 3 -35 15 8 13 45 13 45 1z m208
-15 c-7 -8 -15 -12 -17 -11 -5 6 10 25 20 25 5 0 4 -6 -3 -14z m337 4 c3 -5 1
-10 -4 -10 -6 0 -11 5 -11 10 0 6 2 10 4 10 3 0 8 -4 11 -10z m-552 -22 c-2
-5 5 -8 16 -8 11 0 22 -4 25 -9 6 -9 -70 -4 -86 5 -14 9 -1 19 25 19 14 0 23
-3 20 -7z m267 -14 c0 -11 -17 -14 -80 -12 -87 2 -99 12 -17 14 68 2 69 2 63
13 -4 5 3 7 14 4 11 -3 20 -12 20 -19z m15 -44 c3 -5 0 -10 -8 -10 -8 0 -21
-7 -28 -16 -7 -9 -24 -20 -37 -25 -13 -5 -20 -14 -17 -19 4 -6 3 -10 -2 -9 -4
1 -17 -1 -28 -6 -11 -4 -34 -13 -50 -20 -17 -7 -41 -11 -55 -9 -14 1 -28 3
-32 3 -18 2 -6 21 17 27 13 3 23 11 22 16 -1 6 5 12 13 13 53 10 147 39 164
51 24 17 33 17 41 4z m265 -10 c-7 -14 -21 -20 -43 -20 l-32 1 35 19 c45 25
53 25 40 0z m0 -90 c-6 -11 -13 -20 -15 -20 -3 0 -5 9 -5 20 0 11 7 20 15 20
13 0 14 -4 5 -20z m-103 -4 c-1 -6 10 -12 26 -14 31 -4 36 -27 10 -49 -16 -13
-15 -14 12 -10 20 4 35 0 46 -11 14 -15 14 -19 1 -40 -18 -27 -9 -39 34 -45
35 -5 62 16 56 46 -8 39 52 11 119 -56 72 -72 88 -102 68 -123 -12 -11 -22
-12 -40 -5 -14 5 -38 6 -55 3 l-29 -6 25 -7 c14 -4 39 -7 57 -8 17 -1 34 -4
36 -8 3 -5 -24 -6 -59 -5 -44 3 -64 8 -64 17 0 7 -7 18 -15 25 -8 7 -12 16 -9
21 7 12 -92 74 -143 89 -37 12 -43 11 -64 -9 -27 -25 -28 -25 -53 -6 -15 11
-17 18 -8 27 8 8 1 18 -29 40 -39 28 -50 52 -26 61 6 3 0 6 -15 7 -42 4 -46 4
-54 12 -10 10 110 63 146 64 16 1 28 -4 27 -10z m593 -133 c0 -17 -6 -23 -21
-23 -13 0 -18 -4 -13 -12 4 -7 3 -8 -4 -4 -7 4 -12 16 -12 26 0 10 -5 22 -10
25 -8 5 -7 11 0 20 17 21 60 -2 60 -32z m-305 -263 c-3 -5 -11 -10 -16 -10 -6
0 -7 5 -4 10 3 6 11 10 16 10 6 0 7 -4 4 -10z m729 -149 c26 -21 20 -43 -10
-39 -21 2 -28 9 -30 29 -3 29 12 33 40 10z m-149 -21 c3 -5 1 -10 -4 -10 -6 0
-11 5 -11 10 0 6 2 10 4 10 3 0 8 -4 11 -10z m15 -35 c16 -20 10 -26 -18 -18
-12 3 -22 12 -22 19 0 19 24 18 40 -1z m-1089 -106 c6 -12 17 -56 25 -98 8
-42 18 -93 23 -113 10 -44 3 -47 -29 -13 -13 14 -30 25 -39 25 -12 0 -12 -3
-3 -12 7 -7 12 -17 12 -22 0 -6 -5 -4 -10 4 -8 13 -10 13 -10 -1 0 -9 7 -22
15 -29 11 -9 15 -10 15 0 0 6 12 -3 26 -20 27 -32 45 -112 27 -123 -15 -9
-143 22 -193 47 -45 23 -47 23 -42 4 2 -11 13 -25 23 -31 28 -17 23 -28 -6
-15 -14 6 -25 15 -25 20 0 5 -5 6 -10 3 -7 -4 -9 2 -4 19 5 21 3 25 -10 20 -9
-3 -13 -11 -9 -18 4 -6 -1 -5 -10 3 -18 14 -13 36 6 24 8 -5 8 -2 0 9 -7 8
-31 23 -53 33 -25 11 -39 24 -36 31 3 9 -1 11 -11 7 -12 -5 -14 -3 -7 8 5 8 9
19 9 24 1 6 6 9 13 8 7 -2 11 3 9 10 -1 6 6 11 16 11 9 -1 17 2 17 8 0 5 5 6
10 3 6 -3 10 1 10 9 0 9 -4 16 -10 16 -5 0 -10 7 -10 15 0 8 9 15 19 15 11 0
21 6 24 13 3 9 9 9 28 -1 13 -7 42 -14 63 -16 23 -2 45 -11 53 -22 7 -9 15
-15 18 -12 7 7 -33 52 -75 84 l-35 26 29 -6 c17 -4 43 -17 58 -28 16 -11 32
-17 35 -14 4 3 2 6 -3 6 -17 0 -6 81 13 96 25 18 30 17 44 -7z m-181 -56 c0
-9 -6 -10 -22 -4 -13 5 -32 13 -43 17 -19 6 -18 7 5 14 27 7 60 -8 60 -27z
m-320 -142 c0 -12 -6 -9 -20 9 -26 33 -26 48 0 25 11 -10 20 -25 20 -34z
m1743 -11 c-9 -16 -23 -30 -31 -30 -10 0 -10 4 2 16 9 8 16 22 16 30 0 8 7 14
16 14 13 0 13 -4 -3 -30z m82 10 c4 -6 -5 -10 -19 -10 -14 0 -26 5 -26 10 0 6
9 10 19 10 11 0 23 -4 26 -10z m75 -44 c0 -2 -11 -6 -25 -8 -13 -3 -22 -1 -19
3 5 9 44 13 44 5z m-1412 -171 c59 -8 118 -49 93 -65 -8 -4 -12 -17 -8 -29 6
-23 -32 -71 -56 -71 -21 0 -30 30 -12 35 8 3 22 7 30 10 28 9 15 25 -20 25
-39 0 -119 36 -110 49 3 5 -2 11 -10 15 -8 3 -15 10 -15 16 0 6 5 8 10 5 6 -3
10 -1 10 4 0 6 -8 11 -17 12 -15 0 -15 2 2 8 11 5 27 5 35 1 8 -4 39 -11 68
-15z m1247 -61 c-22 -19 -30 -30 -18 -25 43 21 45 8 3 -37 -17 -19 -27 -39
-23 -47 5 -13 7 -13 19 2 7 10 14 23 14 28 0 6 12 24 26 40 28 33 27 28 -8
-55 -28 -67 -48 -92 -48 -60 0 20 -1 21 -17 4 -17 -17 -18 -17 -21 7 -2 14 3
44 11 67 8 23 11 42 7 42 -5 0 -10 -6 -13 -12 -2 -7 -8 -10 -12 -5 -5 4 0 13
10 20 10 8 16 20 13 28 -5 15 40 37 77 38 16 1 12 -6 -20 -35z m-95 -16 c0
-19 -2 -20 -10 -8 -13 19 -13 30 0 30 6 0 10 -10 10 -22z m130 -142 c11 -15
12 -18 1 -12 -10 7 -12 4 -7 -12 9 -26 -38 -122 -59 -122 -8 0 -15 6 -15 14 0
29 58 167 64 154 1 -2 8 -12 16 -22z m-828 -2 c7 -4 4 -10 -6 -16 -11 -6 -29
-2 -58 12 l-43 20 48 -5 c27 -3 53 -8 59 -11z m-178 -182 c9 -15 -30 -49 -97
-86 -38 -21 -70 -36 -72 -34 -2 2 22 22 54 46 32 23 66 51 76 62 19 21 31 25
39 12z m56 -16 c0 -3 -4 -8 -10 -11 -5 -3 -10 -1 -10 4 0 6 5 11 10 11 6 0 10
-2 10 -4z m-66 -67 c-3 -5 -10 -7 -15 -3 -5 3 -7 10 -3 15 3 5 10 7 15 3 5 -3
7 -10 3 -15z m149 -16 c4 -10 16 -30 28 -45 15 -18 20 -34 16 -50 -10 -39 -57
-102 -93 -126 -33 -22 -37 -22 -60 -8 -22 15 -23 15 -18 -1 3 -10 -2 -7 -10 7
-8 14 -15 22 -16 18 0 -9 -63 13 -72 25 -9 14 17 83 45 118 48 62 167 102 180
62z m847 -503 c0 -5 -4 -10 -10 -10 -5 0 -10 5 -10 10 0 6 5 10 10 10 6 0 10
-4 10 -10z"/>
<path d="M1791 6814 c-9 -10 -25 -15 -47 -12 -30 4 -34 1 -34 -19 0 -23 31
-63 49 -63 5 0 11 7 15 15 3 8 12 15 21 15 16 0 17 0 21 48 3 35 -4 39 -25 16z"/>
<path d="M1490 6660 c8 -5 26 -9 40 -9 23 0 23 1 5 9 -11 5 -29 9 -40 9 -17 1
-17 -1 -5 -9z"/>
<path d="M2332 6786 c13 -25 29 -46 37 -46 7 0 11 -6 7 -15 -5 -15 14 -21 27
-9 9 9 -4 34 -18 34 -7 0 -18 14 -25 30 -7 17 -21 35 -32 41 -17 9 -17 6 4
-35z"/>
<path d="M2435 6710 c-4 -11 -11 -18 -16 -14 -5 3 -9 2 -8 -3 1 -4 1 -10 -1
-13 -1 -3 -3 -17 -5 -32 -3 -26 7 -36 47 -44 17 -4 32 21 22 37 -3 5 0 9 5 9
19 0 12 22 -9 27 -11 3 -20 9 -20 14 0 5 6 7 13 5 6 -1 9 -1 5 1 -5 3 -8 11
-8 19 0 21 -18 17 -25 -6z"/>
<path d="M2340 6702 c0 -15 22 -30 36 -25 23 9 16 25 -7 18 -15 -5 -19 -4 -15
4 4 6 2 11 -3 11 -6 0 -11 -4 -11 -8z"/>
<path d="M1983 6675 c-3 -9 -3 -18 -1 -21 3 -3 8 4 11 16 6 23 -1 27 -10 5z"/>
<path d="M2534 6534 c-9 -34 14 -50 37 -26 12 12 14 22 7 35 -13 25 -37 21
-44 -9z"/>
<path d="M2615 6540 c-10 -11 -17 -31 -17 -45 0 -28 12 -47 19 -29 2 6 17 10
33 8 28 -3 30 -1 30 31 0 40 -7 45 -20 13 -8 -22 -9 -22 -9 4 -1 35 -14 42
-36 18z"/>
<path d="M2630 6451 c0 -5 7 -11 14 -14 10 -4 13 -1 9 9 -6 15 -23 19 -23 5z"/>
<path d="M2680 6425 c-8 -9 -8 -15 -2 -15 12 0 26 19 19 26 -2 2 -10 -2 -17
-11z"/>
<path d="M2636 6405 c-3 -9 0 -15 9 -15 8 0 15 7 15 15 0 8 -4 15 -9 15 -5 0
-11 -7 -15 -15z"/>
<path d="M2606 6363 c-4 -9 -3 -20 2 -25 9 -9 52 18 52 34 0 7 -6 6 -15 -2
-10 -9 -15 -9 -15 -1 0 17 -17 13 -24 -6z"/>
<path d="M2727 6353 c-4 -3 -7 -11 -7 -17 0 -6 4 -5 9 3 7 11 10 9 15 -7 11
-34 33 -35 28 -1 -4 28 -28 39 -45 22z"/>
<path d="M2800 6324 c0 -3 8 -22 17 -41 14 -30 14 -39 3 -57 -12 -19 -11 -20
2 -8 9 7 23 10 32 6 18 -7 16 0 -19 69 -16 32 -35 49 -35 31z"/>
<path d="M2932 6038 c3 -7 13 -15 24 -17 16 -3 17 -1 5 13 -16 19 -34 21 -29
4z"/>
<path d="M1030 5768 c0 -23 -23 -66 -44 -80 -7 -5 -6 -11 4 -18 23 -15 28 -12
26 14 -2 17 4 28 20 37 27 14 31 41 9 59 -13 10 -15 9 -15 -12z"/>
<path d="M968 5633 c7 -3 16 -2 19 1 4 3 -2 6 -13 5 -11 0 -14 -3 -6 -6z"/>
<path d="M828 4053 c7 -3 16 -2 19 1 4 3 -2 6 -13 5 -11 0 -14 -3 -6 -6z"/>
<path d="M2080 3729 c-15 -28 -4 -38 15 -13 17 22 19 34 5 34 -5 0 -14 -9 -20
-21z"/>
<path d="M7830 6979 c0 -492 2 -543 17 -554 17 -13 9 -40 -9 -29 -6 4 -8 -1
-4 -14 4 -11 2 -23 -4 -27 -5 -3 -10 -16 -10 -29 0 -25 34 -46 75 -46 20 0 25
-5 25 -26 0 -14 4 -22 10 -19 5 3 9 22 7 41 -2 33 -10 39 -45 35 -7 -1 -24 7
-39 18 l-26 21 27 0 c14 0 26 5 26 10 0 6 6 10 14 10 7 0 23 14 36 30 13 17
39 38 57 47 32 15 35 15 49 -3 11 -14 17 -15 20 -6 3 6 10 12 15 12 5 0 9 -6
9 -12 0 -7 14 -22 30 -33 25 -17 54 -71 44 -83 -6 -8 -54 31 -54 44 0 8 -7 14
-15 14 -9 0 -15 9 -15 23 0 13 -3 17 -8 11 -4 -7 -18 -12 -32 -12 -14 -1 -34
-3 -45 -6 -11 -2 -22 -5 -24 -5 -2 -1 3 -9 12 -18 8 -10 16 -21 17 -25 5 -43
15 -68 26 -68 8 0 14 5 14 10 0 6 7 10 15 10 8 0 15 -7 15 -15 0 -8 -5 -15
-11 -15 -6 0 -17 -7 -25 -15 -14 -13 -14 -17 0 -30 8 -8 28 -15 45 -15 24 0
32 5 37 25 5 21 9 23 20 14 8 -7 27 -12 42 -13 25 -1 27 -4 28 -49 1 -26 7
-54 14 -62 14 -16 5 -35 -16 -35 -8 0 -14 -4 -14 -8 0 -12 44 -52 57 -52 17 0
25 37 14 59 -7 13 -8 22 -1 26 13 8 30 -3 30 -19 0 -7 13 -30 30 -50 24 -32
27 -41 17 -56 -9 -16 -7 -27 12 -60 13 -23 18 -40 11 -40 -6 0 9 -20 33 -45
25 -25 50 -45 56 -45 5 0 17 10 25 22 9 12 16 18 16 13 1 -6 9 0 19 12 10 12
21 20 24 17 3 -3 11 4 17 16 16 31 -13 62 -54 58 -30 -3 -50 -28 -22 -28 9 0
16 -4 16 -8 0 -12 -49 -7 -62 6 -8 8 -8 15 -1 24 13 16 10 55 -5 70 -9 9 -18
9 -37 0 -15 -7 -25 -8 -25 -2 0 6 4 10 10 10 17 0 4 56 -19 79 -12 12 -19 26
-16 31 3 6 -1 7 -9 4 -11 -4 -16 0 -16 10 0 9 4 16 8 16 11 0 38 -30 45 -50 3
-10 9 -5 19 16 13 31 14 31 33 15 11 -9 25 -34 30 -56 6 -22 14 -39 19 -38 15
4 16 54 1 59 -14 6 -14 15 3 57 14 33 15 51 5 61 -12 12 -11 58 2 63 22 8 3
46 -47 96 -52 53 -55 61 -34 83 8 7 12 23 9 34 -4 14 0 20 11 20 14 0 16 6 10
38 -4 20 -7 37 -8 37 0 0 -14 7 -30 15 -39 20 -47 42 -12 36 43 -8 71 -18 77
-29 10 -14 31 2 25 19 -3 8 -3 21 1 30 5 13 8 13 15 2 6 -9 7 -5 2 12 -9 33
-7 33 -47 22 -33 -9 -36 -8 -42 16 -8 31 -41 62 -67 62 -10 0 -21 7 -24 15 -4
8 -14 15 -23 15 -25 0 -33 11 -20 27 9 10 8 13 -5 13 -23 0 -20 17 4 25 11 3
25 16 31 27 9 17 6 25 -15 47 -14 15 -26 32 -26 39 0 7 -4 12 -10 12 -5 0 -10
16 -10 35 0 31 -4 36 -29 41 -17 4 -32 11 -34 18 -3 6 -23 11 -45 11 l-41 -1
2 44 c1 30 8 51 24 68 25 27 43 31 43 9 0 -8 6 -15 14 -15 8 0 16 -5 18 -11 2
-5 11 -7 21 -4 22 9 23 58 1 79 -16 16 -10 41 7 31 5 -4 9 -2 9 4 0 5 6 11 14
13 13 3 13 6 0 23 -11 15 -18 17 -32 9 -43 -27 -57 17 -16 53 26 22 25 43 -3
43 -13 0 -14 8 -9 40 l6 40 -175 0 -175 0 0 -541z m210 211 c0 -5 -6 -10 -14
-10 -8 0 -18 5 -21 10 -3 6 3 10 14 10 12 0 21 -4 21 -10z m350 -666 c0 -2 -7
-4 -15 -4 -8 0 -15 4 -15 10 0 5 7 7 15 4 8 -4 15 -8 15 -10z m-440 -56 c0 -7
-4 -19 -9 -27 -11 -17 -25 3 -17 24 7 18 26 20 26 3z m237 -174 c-9 -9 -28 6
-21 18 4 6 10 6 17 -1 6 -6 8 -13 4 -17z m146 -85 c23 -17 25 -23 15 -39 -12
-19 -13 -19 -39 6 -15 15 -25 33 -22 40 7 19 16 18 46 -7z m-78 -9 c3 -5 1
-10 -4 -10 -6 0 -11 5 -11 10 0 6 2 10 4 10 3 0 8 -4 11 -10z m35 -34 c0 -8
-7 -16 -15 -20 -10 -4 -15 1 -15 14 0 11 7 20 15 20 8 0 15 -6 15 -14z"/>
<path d="M8628 7513 c17 -3 22 -11 22 -34 0 -19 10 -37 30 -56 17 -14 30 -36
30 -47 0 -12 7 -42 15 -68 8 -29 10 -50 4 -53 -9 -6 -41 -69 -45 -90 -1 -5 -2
-24 -3 -42 -1 -23 -5 -31 -15 -27 -8 3 -21 -4 -29 -16 -17 -25 -13 -124 7
-149 8 -11 8 -15 -2 -19 -21 -7 -52 -44 -45 -55 3 -5 13 2 22 17 21 36 37 33
60 -11 11 -21 29 -44 40 -50 11 -7 24 -27 29 -45 6 -20 15 -32 23 -30 7 2 19
-4 26 -14 6 -9 19 -14 27 -11 8 3 16 -2 19 -12 4 -15 13 -18 56 -16 29 2 55 6
58 9 15 14 43 5 43 -14 0 -11 3 -20 8 -20 10 1 42 67 42 89 0 10 3 21 7 24 10
11 33 -13 33 -34 0 -11 6 -19 13 -19 7 0 18 -9 25 -20 15 -24 62 -28 62 -5 0
9 12 39 26 67 18 36 22 54 15 61 -16 16 -13 27 8 27 10 0 24 7 31 15 7 8 19
15 26 15 21 0 69 33 72 50 4 18 23 31 34 23 5 -2 6 -13 3 -24 -4 -11 -2 -19 5
-19 6 0 8 -4 5 -10 -3 -5 -1 -10 5 -10 6 0 8 -4 5 -10 -8 -13 5 -13 25 0 10 6
20 4 33 -7 17 -16 17 -16 11 3 -7 17 -6 18 10 5 9 -8 15 -20 12 -27 -3 -7 2
-18 10 -24 11 -10 14 -10 14 1 1 10 5 8 15 -4 13 -18 14 -18 31 1 13 16 22 18
40 12 37 -14 37 4 3 72 -78 157 -212 323 -332 414 -164 123 -390 196 -601 193
-50 -1 -81 -4 -68 -6z m82 -483 c0 -5 -4 -10 -10 -10 -5 0 -10 5 -10 10 0 6 5
10 10 10 6 0 10 -4 10 -10z m542 -96 c-4 -23 -6 -24 -15 -9 -8 14 2 32 19 35
1 0 -1 -12 -4 -26z m198 -13 c0 -6 -4 -13 -10 -16 -5 -3 -10 1 -10 9 0 9 5 16
10 16 6 0 10 -4 10 -9z"/>
<path d="M8300 6836 c0 -9 5 -16 10 -16 6 0 10 4 10 9 0 6 -4 13 -10 16 -5 3
-10 -1 -10 -9z"/>
<path d="M9080 6680 c0 -5 5 -10 10 -10 6 0 10 5 10 10 0 6 -4 10 -10 10 -5 0
-10 -4 -10 -10z"/>
<path d="M7825 6223 c-16 -3 -24 -17 -34 -61 -35 -155 -109 -335 -194 -472
-49 -77 -143 -206 -157 -215 -5 -3 -10 -17 -10 -31 0 -13 -5 -24 -11 -24 -5 0
-7 -5 -4 -11 4 -6 13 -8 21 -5 7 3 16 1 19 -4 9 -15 41 -12 55 5 9 11 17 12
31 4 11 -5 31 -8 47 -7 17 2 26 -1 25 -9 -4 -18 14 -16 25 3 5 8 16 16 24 18
22 3 49 27 42 37 -3 5 -16 9 -30 9 -37 0 -28 18 16 31 22 7 40 18 40 26 0 17
20 16 44 -2 42 -32 108 -4 118 50 2 15 10 19 27 17 13 -2 27 0 30 6 3 5 20 12
36 16 28 7 29 7 10 -8 -20 -15 -19 -15 4 -11 13 2 20 1 17 -3 -4 -4 -11 -7
-14 -8 -20 -2 -42 -18 -42 -30 0 -15 40 -45 50 -39 4 3 11 20 14 39 5 27 10
33 26 29 12 -3 23 3 32 16 7 12 20 21 30 21 9 0 19 6 21 13 5 13 57 -38 57
-56 0 -6 -3 -7 -7 -4 -3 4 -13 -2 -20 -13 -10 -14 -21 -19 -34 -15 -11 4 -19
2 -19 -4 0 -6 -8 -11 -19 -11 -10 0 -24 -7 -31 -15 -8 -9 -9 -15 -2 -15 6 0
14 5 17 10 4 6 11 8 16 4 6 -4 6 -11 -1 -19 -12 -15 -5 -75 9 -75 4 0 24 -15
44 -34 28 -25 36 -29 32 -15 -4 11 -2 19 4 19 20 0 11 27 -14 40 -23 12 -23
14 -7 26 9 7 13 14 8 14 -5 0 -3 7 4 15 6 8 9 18 6 24 -8 12 26 23 47 16 8 -4
21 -20 27 -36 10 -24 10 -33 -4 -54 -23 -34 -20 -40 7 -13 12 13 30 22 40 20
10 -2 17 0 16 5 -4 22 2 34 14 26 12 -7 17 -9 36 -12 5 0 18 -19 28 -40 15
-30 17 -44 9 -58 -6 -10 -11 -32 -11 -50 -2 -32 1 -35 65 -53 17 -5 19 -8 7
-9 -15 -1 -16 -5 -7 -21 9 -17 8 -20 -7 -20 -10 0 -27 -14 -38 -30 -11 -16
-26 -30 -32 -30 -17 0 -16 -15 1 -30 19 -15 9 -40 -16 -40 -11 0 -29 -5 -41
-11 -16 -9 -22 -9 -25 0 -2 6 -11 11 -19 11 -22 0 -9 -59 17 -77 18 -13 18
-16 5 -60 -15 -51 -9 -65 26 -56 14 4 19 0 19 -15 0 -11 7 -23 15 -26 12 -4
13 -10 6 -25 -9 -15 -7 -20 9 -24 10 -3 22 0 25 7 3 8 7 8 11 -1 8 -19 23 -16
56 12 33 28 76 33 84 10 4 -8 10 -12 15 -9 5 3 7 10 4 15 -4 5 2 10 12 11 10
0 23 2 30 2 7 1 16 6 21 11 14 14 25 56 15 54 -27 -5 -32 2 -22 30 14 40 38
60 49 41 5 -7 3 -21 -3 -31 -8 -13 -7 -21 2 -33 17 -20 28 -20 47 -1 9 8 19
15 24 15 16 0 21 -39 11 -77 -10 -35 -8 -79 2 -90 2 -2 17 13 33 34 30 40 34
91 8 106 -16 9 -19 27 -3 27 5 0 7 -4 4 -10 -3 -5 -1 -10 5 -10 6 0 9 8 6 18
-4 13 1 23 19 32 20 11 24 20 22 46 -1 26 -6 33 -18 29 -9 -3 -22 1 -29 10
-10 12 -16 13 -26 4 -10 -8 -14 -8 -14 -1 0 6 5 14 10 17 6 3 10 17 10 31 0
18 -4 23 -12 17 -16 -10 -58 -11 -58 -2 0 3 10 11 23 17 12 6 17 11 10 11 -6
1 -9 10 -6 22 5 18 3 20 -16 14 -20 -6 -30 8 -12 19 4 3 8 16 7 28 -1 17 -8
24 -29 26 -23 3 -28 8 -25 25 2 12 8 22 15 22 6 0 15 3 19 8 4 4 17 7 29 7 28
0 41 16 43 54 2 21 -2 27 -13 22 -15 -5 -55 21 -55 36 0 5 9 8 20 8 11 0 20 3
20 8 0 14 -15 27 -30 27 -8 0 -14 5 -13 12 2 7 -6 10 -19 8 -12 -3 -28 1 -36
8 -41 33 -102 4 -102 -49 0 -20 -17 -34 -42 -34 -6 0 -8 13 -6 29 2 17 2 29
-2 28 -3 -1 -20 12 -36 30 -29 31 -49 33 -49 3 0 -8 -8 -16 -19 -18 -12 -3
-17 1 -14 9 3 8 -6 22 -19 32 -13 10 -23 25 -23 34 0 13 -3 13 -15 3 -9 -7
-13 -21 -10 -31 8 -24 -17 -26 -36 -3 -10 13 -10 17 2 25 12 8 11 11 -4 20 -9
6 -15 14 -12 19 3 5 1 11 -5 15 -15 9 -12 25 5 25 18 0 19 12 3 28 -9 9 -9 12
0 12 7 0 12 8 10 18 -2 10 2 16 10 14 7 -1 20 4 28 13 11 11 20 12 34 5 25
-13 30 -13 30 3 0 7 -21 24 -47 38 -26 14 -52 34 -57 45 -6 10 -15 22 -19 25
-5 4 -8 19 -6 35 1 16 -1 44 -5 62 -7 31 -9 32 -22 15 -13 -17 -13 -17 -14 3
0 12 7 24 15 28 9 3 12 12 8 22 -5 15 -7 15 -15 0 -13 -22 -20 -20 -56 14 -18
17 -35 30 -39 29 -5 -1 -15 -1 -23 0 -13 1 -13 2 0 12 12 8 9 10 -12 6 -16 -2
-28 0 -28 4 0 5 -7 6 -15 3 -8 -4 -16 -2 -16 2 -6 40 -5 61 2 70 21 26 -72 84
-136 84 -12 0 -25 4 -30 8 -6 4 -19 6 -30 5z m159 -167 c-10 -8 -21 -12 -23
-10 -3 2 4 11 15 18 10 8 21 12 23 10 3 -2 -4 -11 -15 -18z m-95 -38 c8 -13
21 -18 33 -15 14 4 22 0 25 -14 7 -25 23 -24 30 1 3 11 11 20 19 20 7 0 12 6
10 13 -1 6 -1 9 1 5 3 -5 11 -8 19 -8 19 0 18 -19 -1 -26 -22 -9 -18 -26 10
-53 21 -19 28 -21 40 -11 10 9 15 9 15 1 0 -6 6 -11 14 -11 16 0 51 -49 41
-58 -3 -4 -9 -1 -13 5 -4 6 -20 15 -35 18 -15 4 -27 11 -27 16 0 15 -26 10
-40 -6 -10 -12 -10 -21 -1 -38 6 -12 13 -33 16 -46 2 -13 12 -32 21 -42 10
-11 12 -19 6 -19 -7 0 -12 -7 -12 -15 0 -9 -6 -12 -15 -9 -8 4 -15 12 -15 20
0 8 -10 14 -22 14 -26 -1 -58 -22 -58 -38 0 -20 -28 -1 -32 21 -4 22 17 87 28
87 3 0 2 -4 -1 -10 -11 -17 12 -11 36 10 l24 20 -25 19 c-14 11 -26 26 -26 33
-1 7 -2 18 -3 24 0 7 -8 15 -17 18 -8 3 -12 2 -9 -3 3 -5 1 -12 -5 -16 -14 -8
-70 23 -70 39 0 8 -6 16 -14 19 -17 7 -27 55 -12 61 18 7 50 -6 65 -26z m395
-294 c3 -8 2 -12 -4 -9 -6 3 -10 10 -10 16 0 14 7 11 14 -7z m-713 -241 c7
-10 9 -15 5 -11 -5 4 -15 3 -23 -4 -17 -13 -28 -4 -20 17 8 20 21 19 38 -2z
m709 -4 c0 -11 -4 -17 -10 -14 -5 3 -10 13 -10 21 0 8 5 14 10 14 6 0 10 -9
10 -21z m-795 -29 c3 -5 1 -10 -4 -10 -6 0 -11 5 -11 10 0 6 2 10 4 10 3 0 8
-4 11 -10z m1130 -200 c-3 -6 1 -13 9 -16 23 -9 20 -19 -10 -32 -14 -7 -23 -8
-19 -2 3 5 -1 10 -10 10 -14 0 -14 2 1 25 15 23 43 37 29 15z m10 -118 c-3 -3
-11 0 -18 7 -9 10 -8 11 6 5 10 -3 15 -9 12 -12z m65 -16 c0 -3 -4 -8 -10 -11
-5 -3 -10 -1 -10 4 0 6 5 11 10 11 6 0 10 -2 10 -4z m-10 -46 c0 -15 -7 -20
-25 -20 -27 0 -28 1 -19 24 9 24 44 20 44 -4z m52 -7 c-6 -2 -9 -10 -6 -15 4
-7 2 -8 -5 -4 -13 9 -5 26 12 25 9 0 8 -2 -1 -6z m-206 -38 c7 -18 30 -20 37
-2 3 7 6 5 6 -5 1 -10 -7 -25 -18 -35 -10 -10 -22 -28 -25 -40 -4 -13 -12 -23
-17 -23 -12 0 -11 12 1 44 8 22 7 26 -10 26 -10 0 -22 -5 -25 -10 -4 -6 -12
-10 -18 -9 -7 1 -20 -1 -29 -5 -10 -5 -23 -6 -30 -3 -8 4 -5 8 10 12 12 4 22
14 22 22 0 8 4 12 8 9 5 -3 21 4 38 15 35 23 43 24 50 4z m279 -15 c3 -5 1
-10 -4 -10 -6 0 -11 5 -11 10 0 6 2 10 4 10 3 0 8 -4 11 -10z m-245 -76 c0 -8
-4 -12 -10 -9 -5 3 -10 10 -10 16 0 5 5 9 10 9 6 0 10 -7 10 -16z m-60 -32 c0
-5 -7 -9 -15 -9 -8 0 -12 4 -9 9 3 4 9 8 15 8 5 0 9 -4 9 -8z m-52 -32 c-14
-22 -24 -19 -15 5 4 8 11 15 17 15 6 0 6 -7 -2 -20z m27 -41 c-8 -12 -35 -12
-35 0 0 11 22 20 33 14 4 -2 5 -9 2 -14z"/>
<path d="M8110 6106 c0 -8 5 -18 10 -21 6 -3 10 3 10 14 0 12 -4 21 -10 21 -5
0 -10 -6 -10 -14z"/>
<path d="M8285 6020 c-3 -5 1 -10 10 -10 9 0 13 5 10 10 -3 6 -8 10 -10 10 -2
0 -7 -4 -10 -10z"/>
<path d="M8505 5840 c-3 -5 -1 -10 4 -10 6 0 11 5 11 10 0 6 -2 10 -4 10 -3 0
-8 -4 -11 -10z"/>
<path d="M8618 5782 c9 -6 3 -15 -19 -31 -22 -16 -34 -20 -43 -12 -9 7 -16 7
-24 -1 -9 -9 -6 -18 15 -40 21 -22 27 -39 29 -82 3 -68 18 -98 47 -94 16 2 21
9 19 25 -2 14 4 23 17 28 29 9 44 31 36 55 -5 17 -10 19 -20 10 -33 -27 -47
19 -18 59 13 19 14 28 5 42 -7 10 -12 26 -12 34 0 9 -9 15 -22 15 -15 0 -19
-3 -10 -8z"/>
<path d="M8444 5675 c-3 -8 -3 -19 1 -25 3 -5 -1 -10 -9 -10 -26 0 -31 2 -29
10 4 13 -46 21 -65 11 -9 -6 -12 -11 -7 -11 6 0 4 -4 -4 -9 -11 -7 -7 -13 15
-27 16 -10 32 -22 35 -27 4 -5 16 -4 27 2 14 7 23 8 27 1 4 -6 10 -8 15 -5 4
3 10 -2 14 -10 3 -8 13 -15 23 -15 16 1 16 2 -2 16 -41 30 -57 46 -52 51 8 8
48 -7 42 -17 -3 -4 2 -13 9 -19 10 -8 16 -9 21 -1 3 5 2 10 -3 10 -6 0 -8 8
-5 19 6 24 -45 78 -53 56z"/>
<path d="M9195 5430 c3 -5 11 -10 16 -10 6 0 7 5 4 10 -3 6 -11 10 -16 10 -6
0 -7 -4 -4 -10z"/>
<path d="M8780 5424 c0 -13 18 -39 24 -34 2 3 -2 14 -10 24 -8 11 -14 16 -14
10z"/>
<path d="M8015 5330 c-3 -5 -1 -10 4 -10 6 0 11 5 11 10 0 6 -2 10 -4 10 -3 0
-8 -4 -11 -10z"/>
<path d="M8100 5329 c0 -5 5 -7 10 -4 6 3 10 8 10 11 0 2 -4 4 -10 4 -5 0 -10
-5 -10 -11z"/>
<path d="M8261 5317 c-18 -18 -12 -47 12 -57 12 -5 16 -9 10 -9 -7 -1 -13 -5
-13 -11 0 -5 7 -7 15 -4 8 4 15 1 15 -4 0 -6 12 -10 28 -9 22 2 27 -2 26 -20
0 -13 7 -24 18 -26 11 -3 18 0 18 9 0 8 5 14 11 14 5 0 8 4 4 9 -3 5 -1 12 5
16 14 9 1 28 -15 21 -7 -2 -18 7 -24 21 -9 19 -14 23 -25 14 -10 -9 -21 -5
-44 17 -22 20 -34 26 -41 19z"/>
<path d="M8104 5285 c3 -21 16 -31 16 -12 0 9 -4 18 -9 21 -5 4 -8 -1 -7 -9z"/>
<path d="M8082 5123 c2 -9 8 -18 15 -20 7 -3 9 3 6 16 -6 25 -26 28 -21 4z"/>
<path d="M9581 5077 c-5 -13 -16 -29 -24 -35 -13 -11 -15 -10 -10 8 6 24 -10
24 -37 0 -21 -19 -13 -43 11 -37 14 4 19 0 19 -14 0 -10 -7 -19 -15 -19 -8 0
-15 5 -15 10 0 6 -7 10 -16 10 -8 0 -13 4 -10 8 3 5 -1 9 -9 9 -8 0 -12 -4 -9
-9 3 -4 -2 -8 -10 -8 -8 0 -17 -9 -21 -20 -3 -10 -20 -31 -36 -44 -18 -15 -27
-31 -23 -37 4 -8 3 -9 -5 -5 -6 4 -19 2 -27 -5 -22 -18 -42 4 -24 26 12 14 10
14 -14 5 -15 -5 -41 -12 -59 -15 -18 -4 -33 -10 -35 -16 -5 -13 -32 -12 -32 2
0 6 -9 8 -22 4 -18 -5 -19 -4 -8 4 29 20 0 23 -47 4 -37 -14 -49 -24 -51 -42
-2 -20 0 -22 13 -11 8 7 15 9 15 4 0 -4 5 -3 12 4 7 7 21 12 31 12 15 0 18 -5
13 -25 -8 -32 1 -32 31 1 27 29 37 24 46 -23 4 -22 2 -33 -8 -37 -9 -3 -12
-12 -9 -21 4 -10 13 -14 23 -9 9 3 22 7 28 7 8 0 9 4 3 12 -6 8 -2 11 15 11
14 0 25 -4 25 -9 0 -5 12 -6 26 -3 20 5 25 3 22 -9 -3 -17 -94 -53 -125 -50
-42 4 -89 18 -105 32 -9 8 -22 12 -27 8 -6 -3 -11 1 -11 9 0 10 -9 16 -22 16
-11 0 -36 12 -55 26 -19 14 -37 23 -40 20 -3 -3 -12 -1 -18 4 -9 7 -23 0 -49
-25 -21 -19 -44 -35 -52 -35 -13 0 -16 -8 -18 -55 -1 -14 -9 -20 -30 -22 -16
-1 -39 -12 -50 -23 l-21 -21 47 2 c57 4 65 -3 44 -33 -9 -12 -16 -30 -16 -40
0 -10 -4 -18 -9 -18 -5 0 -11 -9 -14 -20 -3 -13 -14 -20 -29 -20 -27 0 -66
-45 -83 -95 -6 -19 -18 -31 -32 -33 -21 -3 -39 -34 -35 -59 2 -7 -1 -13 -6
-13 -5 0 -14 -11 -20 -24 -6 -13 -19 -27 -30 -30 -31 -10 -22 -35 17 -46 46
-13 51 -13 51 3 1 6 11 25 24 40 19 24 25 26 34 14 15 -18 4 -77 -13 -77 -8 0
-11 -8 -8 -19 4 -16 1 -19 -18 -14 -15 4 -20 3 -15 -5 4 -7 16 -12 27 -12 28
0 24 -30 -8 -57 -33 -29 -51 -29 -62 -1 -8 21 -8 21 -14 -3 -4 -13 -2 -28 3
-33 6 -6 10 -15 10 -21 0 -5 -12 5 -26 23 -14 17 -32 32 -40 32 -8 0 -14 5
-14 11 0 6 -10 19 -22 29 -21 17 -25 17 -40 3 -10 -9 -18 -22 -18 -28 0 -20
-35 -24 -69 -7 -24 11 -35 12 -44 3 -32 -32 -105 6 -94 50 3 12 2 30 -4 40 -6
12 -6 34 2 63 9 38 9 48 -5 61 -18 18 -38 12 -30 -9 3 -7 -2 -16 -10 -19 -20
-8 -20 -24 -2 -59 11 -21 12 -28 1 -32 -7 -2 -11 -15 -9 -28 2 -13 -2 -32 -11
-42 -13 -18 -16 -18 -39 -2 -31 20 -36 20 -36 1 0 -8 7 -15 15 -15 8 0 15 -3
15 -7 -1 -16 -54 -46 -81 -45 -26 1 -27 -1 -17 -29 5 -16 16 -29 23 -29 21 0
28 -19 14 -36 -9 -11 -8 -18 5 -32 19 -22 21 -45 4 -40 -7 3 -14 15 -16 27 -3
15 -13 24 -33 28 -29 6 -30 7 -23 51 7 47 3 49 -38 14 -16 -13 -17 -12 -8 19
6 19 10 35 10 36 0 2 7 3 16 3 12 0 15 6 11 22 -4 12 -1 28 5 35 7 8 7 13 0
13 -5 0 -13 -7 -16 -16 -3 -8 -11 -12 -16 -9 -6 4 -17 1 -25 -5 -8 -7 -15 -9
-15 -6 0 4 -10 -2 -22 -14 -12 -11 -18 -23 -15 -27 4 -3 1 -13 -7 -22 -18 -22
-28 -68 -16 -76 5 -3 -2 -17 -18 -30 -15 -13 -24 -26 -20 -30 5 -6 53 19 68
35 3 3 17 11 31 17 25 11 26 10 24 -19 -1 -17 -9 -35 -18 -40 -23 -12 -21 -27
3 -25 11 1 20 5 20 10 0 5 7 4 15 -3 16 -13 21 -35 7 -26 -5 3 -9 -1 -9 -9 0
-10 5 -11 18 -4 13 7 22 5 31 -7 36 -43 102 -104 114 -104 15 0 44 -38 44 -57
0 -7 -7 -13 -15 -13 -13 0 -14 -4 -3 -22 10 -20 13 -21 16 -5 5 22 14 22 30
-3 10 -17 9 -22 -8 -32 -22 -14 -28 -42 -7 -35 19 6 37 -25 26 -45 -7 -12 -6
-18 1 -18 7 0 9 -8 5 -20 -3 -10 -1 -29 5 -40 9 -18 8 -24 -9 -39 -11 -10 -17
-22 -13 -26 4 -4 -5 -5 -19 -1 -23 5 -28 2 -33 -20 -5 -17 0 -33 14 -51 11
-14 20 -36 20 -49 0 -27 17 -31 45 -10 14 10 23 11 37 3 16 -11 16 -13 1 -30
-9 -10 -18 -28 -19 -40 -2 -12 0 -16 3 -9 4 10 8 10 21 0 13 -11 15 -10 10 8
-4 17 -2 20 13 17 27 -7 23 -22 -8 -35 -16 -7 -30 -13 -31 -14 -2 -2 -5 -17
-6 -35 -2 -24 2 -33 17 -37 14 -4 16 -7 5 -13 -7 -5 -19 -9 -25 -9 -19 0 -112
100 -107 114 3 7 -5 21 -16 31 -16 14 -23 16 -32 7 -11 -11 -1 -17 24 -13 4 0
5 -6 2 -14 -4 -8 -10 -15 -15 -15 -5 0 -9 -4 -9 -10 0 -5 7 -10 15 -10 12 0
14 -8 9 -40 -4 -23 -3 -40 3 -40 5 0 10 -6 11 -12 0 -7 3 -22 7 -33 3 -11 0
-28 -8 -39 -13 -18 -15 -18 -34 -1 -16 14 -19 24 -13 54 6 31 3 39 -17 54 -21
16 -24 16 -29 2 -5 -12 -10 -13 -20 -4 -7 6 -17 8 -23 5 -5 -4 -11 -1 -14 6
-2 7 -2 2 0 -10 2 -15 0 -21 -7 -17 -5 3 -10 -1 -10 -10 0 -10 -6 -15 -13 -12
-14 5 -52 -67 -48 -90 1 -7 -5 -13 -14 -13 -9 0 -34 -9 -56 -21 -37 -19 -42
-19 -64 -5 l-24 16 29 30 c32 33 36 45 20 55 -6 4 -8 15 -5 26 8 25 -4 24 -37
-6 -16 -14 -25 -30 -22 -38 3 -8 0 -18 -6 -22 -9 -6 -9 -9 -1 -15 12 -7 5 -40
-9 -40 -5 0 -12 9 -15 21 -10 30 -29 17 -35 -24 -4 -29 -15 -46 -54 -77 -26
-22 -52 -40 -56 -40 -5 0 -12 -9 -15 -20 -3 -11 -13 -20 -20 -20 -18 0 -32 23
-17 28 22 7 14 60 -10 73 -13 7 -24 12 -25 11 -2 -1 -11 -10 -21 -19 -10 -10
-27 -23 -37 -28 -15 -9 -17 -17 -9 -50 l10 -40 209 -3 c160 -2 211 1 218 10 7
10 10 10 14 1 8 -22 43 -16 40 7 -3 22 -14 35 -28 35 -10 0 -10 4 -2 35 3 11
12 20 20 20 10 0 11 4 3 19 -12 23 -3 51 15 51 17 0 31 -101 17 -125 -20 -37
8 -71 36 -43 9 9 12 9 12 0 0 -16 72 -16 88 0 9 9 12 9 12 0 0 -8 22 -12 70
-12 39 0 70 4 70 9 0 5 -18 7 -39 4 -33 -5 -41 -2 -50 16 -15 28 -31 27 -23
-1 l5 -23 -22 20 c-12 11 -18 21 -12 23 6 2 11 11 11 19 0 12 7 14 29 10 20
-4 34 0 49 14 12 10 25 19 31 19 12 0 25 -30 22 -52 -3 -24 24 -23 35 2 7 14
13 17 24 10 13 -8 13 -13 2 -31 -7 -11 -11 -24 -8 -27 3 -3 6 0 6 6 0 7 4 12
10 12 5 0 7 -7 3 -16 -5 -14 27 -15 318 -11 178 2 334 7 345 11 15 5 20 14 17
27 -3 11 0 19 7 19 21 0 4 24 -21 30 -17 4 -25 14 -27 32 -2 15 -14 37 -27 50
-28 26 -32 48 -9 48 8 0 12 5 9 11 -4 6 -13 8 -21 5 -7 -3 -16 -1 -20 5 -3 5
-15 9 -27 7 -18 -2 -22 2 -23 23 -1 15 -4 34 -7 43 -4 10 0 28 9 41 9 14 14
32 10 40 -3 8 -3 22 1 30 5 14 7 13 18 -2 9 -13 25 -18 54 -18 37 0 42 -3 56
-32 9 -19 23 -33 34 -33 15 0 18 -8 16 -47 -2 -53 18 -81 43 -61 7 6 15 8 18
5 9 -9 -14 -44 -45 -66 -28 -20 -28 -22 -18 -72 5 -28 17 -53 25 -56 22 -9
111 23 193 68 104 57 135 83 144 121 5 22 9 27 12 16 6 -23 12 -23 39 3 18 17
21 26 13 40 -12 22 -29 25 -29 5 0 -8 -4 -17 -9 -20 -4 -3 -6 5 -4 18 6 27
-13 44 -30 27 -15 -15 -37 -14 -37 2 0 7 8 20 19 29 10 8 21 22 23 29 6 18 66
-7 94 -39 l20 -25 35 41 c19 22 60 83 92 137 44 74 56 102 50 118 -4 12 -6 28
-5 35 3 14 -17 16 -38 2 -12 -7 -12 -12 -2 -22 6 -6 12 -19 12 -27 0 -11 -4
-11 -19 3 -11 10 -22 13 -25 8 -3 -5 -17 -12 -31 -14 -38 -8 -56 29 -27 52 14
11 17 21 11 27 -6 6 -3 18 10 34 16 19 20 21 21 7 0 -27 16 -30 55 -8 35 19
38 20 49 4 11 -14 14 -15 19 -2 6 16 -25 70 -39 69 -5 -1 -9 9 -9 22 0 12 -5
27 -12 32 -6 6 -20 26 -30 46 -21 40 -53 76 -53 61 0 -6 -19 -4 -47 4 -57 17
-64 23 -35 31 15 3 21 12 20 28 -2 24 -28 24 -28 0 0 -16 -11 -24 -42 -31 -13
-3 -33 -8 -45 -11 -34 -8 -32 34 2 47 16 6 25 18 26 32 1 25 4 49 14 85 3 15
-1 29 -16 44 -15 15 -17 24 -10 33 8 9 4 22 -14 46 -19 26 -22 36 -13 47 6 8
11 29 10 48 -1 19 3 35 8 35 6 0 10 -9 10 -20 0 -42 68 -150 93 -150 6 0 19 8
29 17 17 15 20 15 35 1 19 -19 11 -50 -11 -42 -9 3 -14 10 -13 14 1 4 -2 9 -7
9 -6 1 -11 -6 -12 -15 -1 -9 0 -13 3 -10 3 3 14 1 25 -5 16 -9 24 -6 41 11 18
21 21 21 32 7 7 -9 14 -15 17 -12 2 3 5 -2 5 -10 0 -8 -4 -12 -8 -10 -3 3 -9
-6 -11 -20 -3 -14 -1 -25 4 -25 5 0 6 -5 2 -12 -4 -7 -3 -8 5 -4 6 4 8 12 5
18 -4 6 -1 8 7 6 8 -3 13 -11 12 -17 -2 -6 2 -11 8 -11 5 0 8 -3 6 -7 -3 -5
10 -16 29 -25 33 -17 34 -17 22 2 -10 15 -9 23 6 39 10 11 24 18 30 15 6 -3 3
1 -6 8 -13 12 -16 27 -12 79 2 35 7 70 9 77 2 6 -1 12 -7 12 -6 0 -8 3 -5 6 3
4 2 15 -4 25 -10 19 2 25 40 20 7 -2 11 1 8 6 -3 4 3 23 12 42 14 27 19 30 24
17 5 -11 3 -15 -5 -10 -7 4 -8 3 -4 -5 6 -9 11 -9 22 0 11 9 12 15 2 28 -7 9
-9 13 -4 9 13 -11 47 27 40 45 -3 9 -10 14 -15 11 -14 -9 -22 25 -10 40 7 8
10 26 7 40 -3 15 -1 24 5 21 5 -4 9 0 9 8 0 8 7 20 15 27 17 14 20 50 5 50
-20 0 -25 3 -38 21 -7 11 -19 19 -27 19 -8 0 -17 5 -21 12 -5 7 -3 8 5 3 9 -5
9 -2 -1 14 -14 22 -24 18 -30 -14 -2 -11 -9 -21 -16 -21 -6 -1 -19 -2 -28 -3
-8 0 -13 -4 -11 -8 3 -5 -14 -8 -36 -7 -67 1 -71 2 -59 17 15 17 8 52 -9 52
-21 0 -31 22 -19 45 12 22 30 27 30 8 0 -15 43 30 53 55 4 10 17 17 31 17 30
0 96 55 96 79 0 10 22 32 52 51 47 31 50 34 31 43 -16 7 -32 3 -64 -16 -30
-18 -62 -27 -102 -29 -39 -2 -56 -7 -53 -15 3 -7 -4 -10 -19 -7 -29 5 -39 -9
-25 -35 12 -24 -15 -60 -33 -42 -14 14 -30 14 -22 1 3 -5 1 -10 -4 -10 -6 0
-11 -7 -11 -15 0 -8 -5 -15 -10 -15 -6 0 -13 7 -16 15 -8 20 -30 19 -38 -1 -3
-8 -2 -13 2 -11 4 3 18 1 31 -4 23 -9 23 -10 6 -29 -10 -11 -21 -17 -26 -15
-4 3 -11 0 -15 -6 -5 -8 -1 -10 12 -7 46 13 49 13 46 -6 -2 -13 1 -16 10 -10
10 6 11 5 1 -8 -7 -8 -9 -18 -5 -22 4 -4 1 -6 -7 -4 -7 2 -16 -3 -19 -11 -3
-9 0 -11 9 -6 8 5 11 5 7 0 -4 -4 -3 -14 4 -22 9 -11 8 -13 -3 -11 -15 3 -15
-4 -4 -35 4 -10 4 -17 -1 -16 -31 5 -53 -23 -36 -45 5 -6 9 -18 9 -28 0 -15
-3 -15 -23 -2 -20 14 -22 14 -20 -3 2 -10 8 -19 14 -19 7 -1 17 -2 22 -3 6 0
10 -6 10 -12 0 -5 -4 -8 -9 -5 -5 3 -14 -1 -21 -9 -10 -12 -16 -13 -27 -4 -11
10 -12 8 -7 -6 5 -11 3 -16 -2 -12 -6 3 -17 -3 -25 -15 -38 -55 -45 -61 -68
-53 -19 6 -21 11 -15 38 8 38 23 59 35 51 5 -3 8 -1 7 4 -2 5 7 18 20 28 21
17 22 22 11 46 -6 15 -17 25 -22 21 -6 -4 -8 0 -4 11 5 12 -1 20 -18 28 -36
16 -30 34 18 55 15 7 27 21 28 30 0 10 2 26 4 36 2 9 -1 17 -6 17 -6 0 -7 4
-4 10 9 15 15 54 7 46 -4 -4 -8 -12 -8 -17 -1 -5 -2 -13 -3 -19 -1 -12 -38
-13 -45 -1 -3 5 -16 7 -28 3 -15 -4 -19 -2 -13 8 5 8 3 11 -6 8 -8 -3 -14 -11
-14 -19 0 -8 -12 -15 -27 -17 -22 -3 -26 0 -21 17 3 12 11 21 19 21 7 0 23 14
36 30 12 17 43 42 68 57 25 14 49 33 54 42 5 9 23 29 39 44 21 19 30 37 29 58
-1 25 5 32 35 44 45 19 47 19 38 -2 -4 -10 -8 -30 -10 -45 l-2 -27 25 18 c16
11 26 30 29 52 2 18 10 40 17 48 16 15 69 25 60 10 -3 -5 0 -9 6 -9 6 0 8 -4
5 -10 -3 -6 1 -7 9 -4 9 3 14 10 11 14 -3 4 2 11 10 14 20 7 15 26 -12 48 -17
14 -21 27 -18 56 7 65 -16 98 -34 49z m-101 -132 c-7 -8 -16 -15 -21 -15 -15
0 -10 22 9 43 15 17 17 17 20 3 2 -9 -2 -23 -8 -31z m-135 -105 c7 0 16 6 19
13 2 6 4 2 2 -10 -3 -28 -5 -31 -38 -37 -25 -4 -25 -3 -14 25 6 17 12 25 14
19 2 -5 10 -10 17 -10z m153 -305 c-3 -3 -9 2 -12 12 -6 14 -5 15 5 6 7 -7 10
-15 7 -18z m-14 -50 c-5 -12 -2 -14 12 -8 17 6 18 5 5 -11 -13 -15 -15 -16
-23 -2 -5 9 -6 21 -3 26 9 15 15 12 9 -5z m-190 -100 c-4 -8 -10 -15 -15 -15
-4 0 -6 7 -3 15 4 8 10 15 15 15 4 0 6 -7 3 -15z m167 -18 c-8 -8 -14 -7 -23
2 -11 10 -9 11 6 5 15 -6 17 -4 11 6 -6 9 -4 11 4 5 9 -5 10 -10 2 -18z m-771
-51 c0 -3 -4 -8 -10 -11 -5 -3 -10 -1 -10 4 0 6 5 11 10 11 6 0 10 -2 10 -4z
m17 -48 c-3 -8 -6 -5 -6 6 -1 11 2 17 5 13 3 -3 4 -12 1 -19z m529 0 c-6 -45
-29 -79 -50 -76 -32 5 -32 42 0 67 14 11 30 18 35 15 5 -3 9 0 9 5 0 6 2 11 4
11 3 0 3 -10 2 -22z m430 -7 c-8 -12 41 -24 57 -14 7 4 4 -4 -6 -17 -28 -39
-31 -51 -16 -61 11 -8 9 -9 -6 -7 -13 2 -19 -2 -17 -11 3 -12 0 -12 -12 -1
-13 10 -16 10 -17 -1 0 -10 -2 -11 -6 -1 -6 15 -33 16 -33 1 0 -5 -4 -7 -10
-4 -29 18 0 88 45 113 25 14 28 14 21 3z m-898 -90 c21 -13 26 -70 8 -77 -16
-6 -24 -57 -8 -51 4 1 8 -2 9 -8 2 -5 -7 -10 -20 -10 -29 0 -34 -31 -7 -45 29
-15 42 -2 43 44 1 20 5 36 10 36 5 0 7 6 4 13 -5 14 10 47 22 47 5 0 12 -11
15 -24 3 -14 15 -27 25 -31 22 -7 34 -42 17 -48 -6 -2 -26 -2 -44 1 -33 5 -34
4 -31 -25 2 -17 -2 -38 -10 -46 -8 -10 -10 -25 -5 -39 20 -64 2 -128 -36 -128
-11 0 -40 18 -64 40 -49 46 -52 47 -52 21 0 -12 6 -17 18 -13 20 5 24 -8 7
-25 -6 -6 -8 -17 -4 -24 6 -9 11 -7 21 6 8 10 17 16 21 12 3 -4 -1 -15 -11
-26 -19 -21 -9 -35 37 -46 15 -4 27 -11 27 -16 0 -10 -36 -45 -67 -66 -24 -16
-30 -51 -14 -82 11 -19 -1 -45 -21 -47 -7 0 -23 -2 -35 -2 -17 -2 -23 -8 -23
-26 0 -28 -28 -41 -66 -32 -17 5 -26 2 -30 -9 -4 -8 -11 -15 -16 -15 -5 0 -23
-9 -39 -21 l-29 -21 -11 31 c-11 31 -27 39 -45 21 -12 -12 -56 -1 -51 14 3 6
10 10 16 8 6 -1 11 3 11 9 0 5 4 8 8 5 12 -7 12 36 0 51 -6 7 -19 13 -29 13
-32 0 -63 20 -87 56 -23 35 -23 36 -3 29 37 -11 42 5 14 40 -18 23 -34 33 -45
29 -10 -3 -23 5 -35 21 -10 15 -28 39 -41 55 -13 17 -22 37 -20 46 2 13 13 6
46 -27 41 -43 42 -43 42 -17 0 14 -7 28 -15 32 -9 3 -15 19 -15 41 0 25 -8 44
-25 61 -29 29 -31 40 -9 48 23 9 53 -11 60 -39 3 -14 10 -26 15 -26 5 -1 14
-3 19 -4 6 -1 14 -3 19 -4 20 -3 18 -33 -5 -76 -24 -46 -24 -47 -5 -71 18 -23
20 -24 29 -7 5 10 7 24 5 31 -6 17 22 15 37 -3 6 -8 10 -20 7 -27 -7 -21 25
-69 43 -63 9 3 25 -4 36 -16 17 -19 18 -22 2 -33 -14 -10 -15 -16 -4 -37 11
-22 17 -24 70 -22 59 3 86 15 86 38 0 7 7 18 15 25 8 7 12 16 9 22 -5 7 19 72
32 87 1 2 17 -7 34 -19 17 -12 34 -20 37 -16 3 3 -5 33 -17 66 -22 58 -25 61
-67 72 -41 10 -44 13 -41 40 2 17 -3 32 -11 37 -19 12 -23 91 -4 91 7 0 18
-11 25 -25 11 -24 12 -24 39 -8 34 20 52 61 43 96 -7 32 9 36 38 10 17 -15 18
-15 18 6 0 12 7 24 15 27 10 4 13 13 9 26 -10 34 24 59 54 39z m735 -96 c-3
-9 -8 -14 -10 -11 -3 3 -2 9 2 15 9 16 15 13 8 -4z m-1305 -28 c2 -19 -1 -27
-12 -27 -9 0 -16 4 -16 8 0 5 -9 18 -19 29 -19 21 -19 21 12 19 27 -1 33 -6
35 -29z m842 3 c0 -5 -4 -10 -10 -10 -5 0 -10 5 -10 10 0 6 5 10 10 10 6 0 10
-4 10 -10z m-965 -16 c9 -9 14 -18 11 -21 -7 -7 -46 16 -46 27 0 15 17 12 35
-6z m359 -5 c-3 -5 -10 -7 -15 -3 -5 3 -7 10 -3 15 3 5 10 7 15 3 5 -3 7 -10
3 -15z m-204 -19 c0 -5 -2 -10 -4 -10 -3 0 -8 5 -11 10 -3 6 -1 10 4 10 6 0
11 -4 11 -10z m-110 -30 c0 -5 -4 -10 -10 -10 -5 0 -10 5 -10 10 0 6 5 10 10
10 6 0 10 -4 10 -10z m160 0 c0 -5 -7 -10 -15 -10 -8 0 -15 5 -15 10 0 6 7 10
15 10 8 0 15 -4 15 -10z m1268 -15 c-3 -3 -9 2 -12 12 -6 14 -5 15 5 6 7 -7
10 -15 7 -18z m-1138 -85 c0 -5 -4 -10 -10 -10 -5 0 -10 5 -10 10 0 6 5 10 10
10 6 0 10 -4 10 -10z m901 -10 c25 -14 25 -40 0 -40 -23 0 -54 28 -46 41 8 12
22 11 46 -1z m-843 -48 c13 -2 21 -10 19 -16 -7 -20 -38 -18 -58 3 -24 25 -24
35 -1 26 9 -4 27 -10 40 -13z m99 -26 c-7 -17 -42 -22 -52 -7 -8 14 37 43 48
32 5 -5 7 -17 4 -25z m313 -25 c0 -5 -7 -14 -15 -21 -18 -15 -42 1 -31 19 8
13 46 15 46 2z m-582 -343 c27 -14 28 -34 2 -50 -28 -18 -27 -52 1 -45 15 4
19 2 15 -10 -3 -8 -6 -21 -6 -30 0 -11 -7 -13 -32 -8 -36 8 -55 21 -45 31 4 4
13 1 22 -6 17 -14 19 -7 6 38 -6 20 -6 32 0 32 5 0 9 7 9 16 0 15 -2 15 -26
-1 -19 -12 -29 -14 -39 -5 -12 10 -12 15 1 34 15 25 46 26 92 4z m1114 -71
c-9 -10 -17 -26 -17 -35 0 -9 -7 -17 -15 -17 -22 0 -82 -27 -100 -44 -13 -13
-15 -12 -19 5 -2 10 -7 24 -13 31 -6 7 -5 14 2 18 6 3 8 10 5 15 -3 5 -1 12 5
15 6 4 9 1 8 -7 -5 -24 23 -13 40 16 13 22 14 30 5 33 -7 3 -13 12 -12 21 0
14 3 12 16 -5 15 -22 16 -22 42 -4 43 30 55 30 63 2 5 -17 2 -31 -10 -44z
m-931 28 c-1 -15 -24 -12 -29 3 -3 9 2 13 12 10 10 -1 17 -7 17 -13z m-271
-45 c0 -12 -28 -25 -36 -17 -9 9 6 27 22 27 8 0 14 -5 14 -10z m633 -16 c-7
-3 -9 -12 -6 -21 4 -11 1 -14 -13 -11 -10 2 -20 11 -22 21 -3 13 3 17 25 16
15 0 23 -3 16 -5z m-537 -81 c-10 -10 -19 5 -10 18 6 11 8 11 12 0 2 -7 1 -15
-2 -18z m147 -87 c-3 -17 -6 -42 -6 -54 1 -20 -3 -23 -21 -18 -11 3 -29 6 -38
6 -10 0 -18 4 -18 9 0 5 9 7 20 4 16 -4 20 0 20 19 0 31 -28 71 -46 64 -28
-11 -13 9 19 25 30 16 33 16 54 -4 18 -16 21 -27 16 -51z m141 -122 c5 -14 4
-15 -9 -4 -17 14 -19 20 -6 20 5 0 12 -7 15 -16z m-364 -29 c0 -19 -4 -35 -10
-35 -5 0 -10 16 -10 35 0 19 5 35 10 35 6 0 10 -16 10 -35z m420 -5 c0 -5 -4
-10 -10 -10 -5 0 -10 5 -10 10 0 6 5 10 10 10 6 0 10 -4 10 -10z m-240 -45 c0
-8 -10 -25 -21 -36 l-22 -22 -18 24 c-23 30 -23 36 -1 42 37 10 62 7 62 -8z
m210 -39 c0 -5 -9 -1 -19 8 -11 10 -17 25 -14 33 5 12 9 10 19 -8 7 -13 13
-28 14 -33z m590 39 c0 -8 -4 -15 -9 -15 -13 0 -22 16 -14 24 11 11 23 6 23
-9z m-100 -35 c0 -11 -7 -20 -15 -20 -18 0 -19 12 -3 28 16 16 18 15 18 -8z
m-1098 -70 c4 0 12 8 17 18 15 25 14 -3 -1 -45 -11 -29 -16 -33 -50 -33 -46 0
-58 19 -58 88 l0 50 42 -39 c24 -22 46 -39 50 -39z m382 32 c7 -12 -7 -27 -29
-29 -11 -1 -14 0 -7 3 6 3 12 12 12 20 0 15 16 19 24 6z m-134 -57 c0 -8 -4
-15 -10 -15 -5 0 -10 7 -10 15 0 8 5 15 10 15 6 0 10 -7 10 -15z m196 -24
c-12 -19 -24 -12 -19 10 4 13 9 17 15 11 6 -6 7 -15 4 -21z m414 14 c0 -9 -6
-12 -15 -9 -8 4 -15 10 -15 15 0 5 7 9 15 9 8 0 15 -7 15 -15z"/>
<path d="M8585 3890 c-3 -5 -1 -10 4 -10 6 0 11 5 11 10 0 6 -2 10 -4 10 -3 0
-8 -4 -11 -10z"/>
<path d="M8750 3855 c0 -8 5 -15 10 -15 6 0 10 7 10 15 0 8 -4 15 -10 15 -5 0
-10 -7 -10 -15z"/>
<path d="M8597 3598 c-9 -5 -17 -15 -17 -23 0 -24 21 -28 39 -8 22 23 5 47
-22 31z"/>
<path d="M9385 5017 c-49 -28 -65 -45 -59 -60 4 -12 11 -13 35 -5 16 5 32 15
36 21 3 6 1 7 -5 3 -18 -11 -14 15 5 36 18 20 17 21 -12 5z"/>
<path d="M9675 5020 c-4 -6 -11 -8 -16 -5 -5 3 -6 -1 -3 -10 4 -9 7 -15 8 -13
1 2 8 11 15 21 7 9 11 17 8 17 -3 0 -9 -5 -12 -10z"/>
<path d="M6810 4970 c0 -5 5 -10 10 -10 6 0 10 5 10 10 0 6 -4 10 -10 10 -5 0
-10 -4 -10 -10z"/>
<path d="M6640 4950 c0 -5 6 -10 14 -10 8 0 18 5 21 10 3 6 -3 10 -14 10 -12
0 -21 -4 -21 -10z"/>
<path d="M6686 4944 c-4 -11 -1 -14 11 -12 9 2 18 9 21 16 6 18 -25 15 -32 -4z"/>
<path d="M9664 4943 c3 -3 1 -12 -5 -19 -8 -9 -5 -11 10 -7 27 7 33 29 9 30
-11 1 -18 -1 -14 -4z"/>
<path d="M6479 4934 c-9 -3 -20 -22 -25 -42 -11 -47 -50 -58 -60 -18 -3 14 -3
30 1 35 4 7 -9 11 -36 11 -39 0 -41 -1 -27 -17 17 -20 33 -113 19 -113 -5 0
-14 7 -21 15 -7 8 -16 12 -21 9 -5 -3 -9 7 -9 21 0 14 -7 39 -15 55 -15 29
-19 30 -81 30 -46 0 -70 -5 -81 -15 -14 -14 -17 -14 -33 0 -15 14 -136 15
-1211 13 l-1194 -3 -76 -22 c-126 -37 -234 -82 -319 -133 -277 -167 -464 -418
-553 -745 -21 -80 -21 -84 -24 -1238 -3 -764 0 -1156 6 -1152 6 3 18 1 28 -4
10 -5 26 -12 36 -15 18 -6 24 -46 7 -46 -5 0 -10 5 -10 10 0 19 -23 10 -46
-17 -24 -29 -32 -63 -14 -63 6 0 10 4 10 10 0 5 7 7 15 4 19 -8 19 -28 0 -44
-8 -7 -13 -16 -10 -20 3 -5 -1 -14 -8 -22 -35 -34 10 -253 81 -398 129 -263
417 -498 798 -654 183 -75 519 -167 770 -210 124 -22 134 -21 134 9 0 35 27
32 35 -5 7 -33 28 -39 45 -13 9 17 11 16 30 -5 15 -19 35 -26 87 -32 134 -17
426 -23 568 -11 258 21 265 22 265 37 0 17 12 18 27 3 7 -7 23 -9 38 -5 23 6
26 11 21 31 -6 22 -3 25 19 25 14 0 25 -4 25 -10 0 -5 7 -10 15 -10 10 0 15
10 15 30 0 41 28 40 37 -1 6 -30 34 -52 40 -33 2 6 18 8 35 6 26 -4 30 -2 25
12 -4 9 -2 16 3 16 6 0 10 9 10 19 0 13 -8 21 -22 23 -16 2 -31 18 -47 52 -24
48 -24 49 -5 65 45 36 63 101 28 101 -8 0 -14 4 -14 9 0 5 -14 14 -30 21 -23
10 -33 10 -45 0 -19 -15 -9 -69 16 -92 20 -17 25 -38 10 -38 -6 0 -13 5 -16
10 -4 6 -15 8 -26 5 -19 -6 -24 2 -20 35 2 9 -4 6 -14 -7 -24 -34 -39 -29 -32
12 3 19 2 35 -3 35 -5 0 -7 7 -4 15 3 8 1 28 -5 45 -8 25 -7 36 10 65 l21 35
-24 42 c-18 32 -30 42 -45 41 -12 -1 -27 4 -33 12 -18 21 4 45 41 45 26 0 30
-5 41 -45 13 -49 26 -56 46 -25 15 24 32 18 32 -10 0 -16 6 -19 40 -16 22 2
41 1 44 -1 8 -8 -6 -33 -15 -27 -5 3 -9 -11 -9 -31 0 -30 3 -36 16 -31 9 3 18
6 20 6 2 0 4 7 4 15 0 21 29 33 85 34 27 0 51 5 53 11 7 19 30 10 57 -21 14
-18 24 -38 21 -45 -8 -21 3 -17 27 12 l22 25 22 -21 c17 -15 20 -25 14 -38 -6
-9 -22 -43 -37 -75 -14 -31 -31 -60 -35 -63 -5 -3 -7 -9 -4 -14 3 -5 -4 -7
-15 -5 -21 4 -29 -19 -10 -30 6 -4 8 -11 5 -16 -6 -8 8 -13 27 -10 5 0 7 -2 7
-7 -4 -21 3 -33 17 -30 10 2 19 -3 21 -9 3 -7 -2 -13 -10 -13 -15 0 -104 25
-144 40 -35 14 -68 -22 -68 -76 0 -24 5 -46 12 -48 29 -12 419 94 605 165 341
128 588 296 750 509 84 110 155 276 179 416 11 68 16 560 6 571 -3 3 -23 7
-44 9 -56 5 -64 7 -58 12 3 3 -2 16 -10 29 -20 30 -12 57 21 72 34 15 44 7 44
-36 0 -20 3 -33 6 -30 4 3 15 2 25 -3 16 -9 18 -3 21 65 5 117 -2 256 -13 249
-5 -3 -7 -10 -4 -15 4 -5 3 -9 -2 -9 -4 0 -13 17 -20 38 -13 42 -3 63 22 42
13 -11 15 -9 15 12 0 23 -5 26 -52 31 -87 9 -201 0 -210 -18 -5 -8 -17 -15
-27 -15 -25 0 -32 -10 -20 -32 6 -12 17 -17 28 -13 10 3 18 0 19 -7 2 -28 8
-47 20 -61 7 -8 11 -23 11 -33 -4 -39 1 -55 17 -52 10 2 20 -7 25 -20 8 -22 7
-23 -29 -20 -31 3 -37 0 -38 -17 -1 -11 -2 -25 -3 -32 -1 -7 -13 -10 -31 -8
-42 6 -53 14 -40 30 8 9 8 15 0 20 -5 3 -8 21 -5 38 4 29 4 30 -9 15 -7 -10
-21 -18 -30 -18 -11 0 -16 -9 -16 -27 l-1 -28 -19 23 c-11 13 -21 18 -25 12
-14 -22 -27 -9 -22 20 5 22 3 30 -8 30 -8 0 -18 -7 -23 -16 -8 -15 -10 -15
-15 0 -4 9 -2 16 4 16 6 0 9 7 5 15 -3 8 3 30 14 47 10 18 24 54 30 79 8 31
19 50 33 57 16 8 -43 11 -215 11 -232 1 -238 0 -238 -19 0 -26 -16 -26 -30 0
-7 13 -21 20 -39 20 -25 0 -29 -5 -34 -33 -5 -34 14 -67 40 -67 9 0 13 -13 13
-39 0 -34 -4 -41 -33 -54 -39 -19 -82 -16 -103 5 -19 19 -31 98 -15 98 6 0 11
10 11 21 0 17 3 19 14 10 18 -15 26 -3 19 32 -5 26 -7 27 -69 27 -52 0 -66 -3
-71 -17 -9 -23 -32 -47 -39 -40 -4 3 -2 12 2 19 21 33 13 35 -170 40 -196 5
-269 1 -260 -13 3 -5 0 -9 -5 -9 -6 0 -11 5 -11 10 0 6 -7 10 -15 10 -8 0 -15
-4 -15 -9 0 -6 -12 -4 -26 4 -18 9 -52 12 -105 9 -86 -4 -99 -7 -99 -30 0 -8
-4 -14 -10 -14 -9 0 -14 14 -11 33 0 4 -9 7 -22 7 -16 0 -31 -12 -48 -37 -29
-46 -59 -56 -59 -20 0 13 -10 33 -23 45 -22 21 -33 22 -170 22 l-147 0 -2 78
c-2 90 -2 170 0 265 l2 67 563 0 c471 0 566 2 583 14 11 9 30 12 47 9 23 -5
27 -2 27 16 0 28 9 27 47 -9 21 -20 42 -30 62 -30 27 0 31 4 31 26 0 23 3 25
33 22 28 -3 32 0 30 20 -3 21 13 28 55 23 20 -3 45 28 39 50 -4 15 -1 19 11
17 23 -4 40 -77 21 -89 -10 -6 -8 -9 8 -9 12 0 27 -10 34 -21 8 -15 8 -19 0
-15 -6 4 -11 0 -11 -8 0 -14 21 -16 158 -16 159 0 202 5 202 22 0 5 -6 5 -17
0 -26 -15 -52 16 -46 56 4 23 16 40 40 56 19 13 34 27 34 30 -1 3 -1 18 -1 33
0 25 1 25 19 9 19 -17 21 -17 42 3 13 12 27 21 32 21 4 0 15 7 23 15 9 8 13
15 9 15 -3 0 0 10 6 23 6 12 8 19 4 14 -5 -4 -19 0 -32 8 -22 15 -25 14 -46
-8 -38 -39 -57 -25 -57 43 0 51 -2 58 -22 64 -41 11 -68 7 -68 -10 0 -8 -4
-12 -10 -9 -5 3 -10 -1 -10 -9 0 -19 -36 -40 -56 -32 -8 3 -14 19 -14 41 0 30
3 35 24 35 30 0 42 16 45 60 1 27 -1 32 -11 22 -15 -15 -32 -16 -22 -1 4 7 8
27 10 46 2 33 19 63 34 63 10 0 60 -95 60 -115 0 -8 4 -15 10 -15 6 0 5 -10
-2 -25 -13 -30 -10 -34 29 -39 37 -4 65 14 53 34 -5 8 -7 25 -3 37 10 41 -5
73 -42 89 -39 16 -47 35 -12 27 19 -4 20 -3 5 7 -21 13 -24 46 -5 53 7 3 5 6
-6 6 -10 1 -20 -5 -23 -13 -5 -12 -8 -12 -24 1 -14 12 -16 22 -10 38 20 53 91
93 104 59 6 -15 -13 -54 -26 -54 -5 0 -8 -4 -8 -9 0 -16 48 -6 70 14 18 16 19
20 5 35 -13 14 -12 18 6 33 15 13 17 22 10 36 -9 16 -7 19 14 19 14 0 22 -4
20 -9 -7 -10 32 -22 45 -14 5 3 10 14 10 24 0 10 9 26 20 36 15 13 17 21 9 31
-14 17 -3 35 17 27 20 -7 43 25 44 61 0 27 -2 28 -34 23 -26 -4 -34 -2 -30 7
3 7 -2 19 -11 26 -13 11 -15 9 -15 -9 0 -56 -54 -23 -115 70 -24 37 -58 52
-96 42 -23 -6 -24 -17 -4 -37 14 -13 13 -16 -5 -26 -18 -9 -20 -8 -20 15 0 15
-5 25 -12 23 -19 -3 -90 36 -114 64 -59 67 -73 119 -42 150 14 14 23 18 26 10
2 -7 15 -12 28 -12 13 0 24 -4 24 -10 0 -5 7 -7 15 -4 8 4 27 -1 41 -11 24
-16 26 -16 31 4 3 11 11 17 18 14 8 -2 12 -10 9 -17 -3 -9 4 -12 24 -11 47 3
50 7 43 67 -1 11 -59 68 -69 68 -5 0 -15 6 -22 14 -6 8 -17 13 -25 10 -13 -5
-15 -28 -2 -40 11 -11 8 -21 -5 -22 -37 -3 -65 -10 -85 -21 -16 -8 -23 -8 -23
-1 0 6 -5 8 -10 5 -31 -19 -105 54 -80 79 7 7 10 6 10 -2 0 -12 35 -52 46 -52
3 0 -6 15 -20 33 -15 19 -26 42 -26 51 0 22 -33 85 -59 113 -12 12 -21 34 -21
48 0 34 -38 71 -59 58 -11 -7 -22 -6 -38 4 -37 25 -58 13 -58 -32 -1 -37 -2
-40 -28 -37 -20 2 -25 -1 -21 -13 4 -8 1 -15 -6 -15 -6 0 1 -13 16 -29 27 -29
28 -29 42 -10 15 22 42 25 42 5 0 -8 14 -24 30 -36 17 -12 28 -26 25 -30 -7
-12 22 -70 35 -70 6 0 10 -4 10 -10 0 -5 -10 -10 -23 -10 -13 0 -28 -5 -35
-12 -7 -7 -12 -8 -12 -4 0 5 -7 3 -15 -4 -16 -13 -75 -5 -75 11 0 5 -22 32
-49 61 -32 34 -46 57 -40 62 15 16 10 34 -21 69 -16 19 -30 39 -30 45 0 6 -13
20 -28 30 -15 11 -29 29 -30 39 -1 10 -3 27 -4 38 -2 11 2 20 7 20 6 0 16 4
23 8 6 5 12 5 12 1 0 -4 9 1 19 10 24 22 54 17 59 -8 3 -12 0 -16 -8 -11 -8 5
-11 3 -8 -6 3 -8 13 -14 24 -15 10 0 31 -4 46 -8 19 -6 36 -3 57 10 17 10 31
22 31 26 0 4 7 8 15 8 8 0 20 10 26 22 l12 22 18 -23 c11 -13 19 -19 19 -13 0
5 9 12 20 15 29 7 34 31 14 62 -16 24 -18 25 -35 9 -16 -14 -18 -14 -29 5 -14
27 -4 44 21 36 14 -5 19 -2 19 11 0 10 9 27 19 38 11 12 22 32 26 46 5 22 2
27 -28 38 -43 16 -43 16 -67 -10 -13 -14 -18 -29 -14 -42 5 -16 1 -14 -16 8
-18 22 -21 32 -13 45 6 9 16 15 21 14 13 -3 26 33 17 47 -3 6 1 13 9 16 9 3
16 12 16 19 0 7 8 16 18 20 13 6 10 10 -18 17 -54 14 -74 17 -91 12z m-2149
-54 c0 -11 -4 -20 -9 -20 -14 0 -23 18 -16 30 10 17 25 11 25 -10z m-161 -76
c-19 -23 -49 -17 -49 9 0 33 9 38 36 20 19 -12 22 -19 13 -29z m1989 29 c-5
-26 -38 -29 -38 -4 0 15 6 21 21 21 14 0 19 -5 17 -17z m-1358 -58 c7 -9 8
-15 2 -15 -5 0 -12 7 -16 15 -3 8 -4 15 -2 15 2 0 9 -7 16 -15z m1643 -25 c14
-16 32 -30 39 -30 8 0 26 -10 40 -21 20 -16 24 -25 15 -33 -18 -20 -67 -7 -78
21 -6 15 -15 23 -23 20 -10 -4 -12 0 -9 14 3 11 -2 28 -12 39 -10 11 -13 20
-7 20 5 0 22 -13 35 -30z m-938 -10 c-11 -13 -13 -20 -5 -25 6 -4 15 -18 20
-31 13 -34 68 -33 100 1 29 30 70 33 77 5 9 -35 63 -38 63 -4 0 24 25 10 28
-15 2 -12 -4 -33 -13 -47 -15 -24 -31 -26 -80 -13 -5 1 -18 -1 -28 -6 -10 -4
-42 -5 -72 -2 -29 3 -56 3 -60 -1 -3 -3 -39 -6 -80 -7 -70 0 -74 1 -78 25 -3
13 2 40 12 60 13 29 24 37 58 44 28 6 45 15 48 28 4 10 11 16 16 12 6 -4 4
-13 -6 -24z m275 11 c0 -5 -9 -11 -21 -14 -14 -4 -18 -10 -14 -19 6 -10 5 -10
-5 -1 -10 9 -10 14 1 27 15 17 39 21 39 7z m760 -155 c0 -2 -7 -9 -15 -16 -12
-10 -15 -10 -15 4 0 9 7 16 15 16 8 0 15 -2 15 -4z m-315 -51 c2 -14 2 -25 -1
-25 -9 0 -24 41 -18 51 8 14 16 4 19 -26z m175 25 c0 -5 -4 -10 -10 -10 -5 0
-10 5 -10 10 0 6 5 10 10 10 6 0 10 -4 10 -10z m80 -10 c0 -11 -7 -20 -15 -20
-27 0 -18 30 13 39 1 1 2 -8 2 -19z m-466 -125 c-6 -16 -24 -21 -24 -7 0 11
11 22 21 22 5 0 6 -7 3 -15z m-1548 -9 c15 -12 16 -17 7 -27 -10 -10 -17 -9
-33 6 -32 29 -10 47 26 21z m1469 -15 c-3 -6 -11 -11 -17 -11 -6 0 -6 6 2 15
14 17 26 13 15 -4z m150 -11 c3 -13 10 -27 17 -32 10 -6 9 -11 -4 -22 -21 -16
-23 -32 -5 -39 7 -3 5 -6 -5 -6 -27 -1 -10 -29 22 -36 20 -4 27 -11 23 -21 -4
-10 2 -14 21 -14 14 0 26 4 26 9 0 7 54 41 65 41 1 0 1 -10 0 -22 -2 -13 -8
-22 -15 -20 -11 3 -11 0 0 -12 7 -9 19 -16 28 -16 13 0 13 -2 0 -17 -29 -35
-32 -46 -10 -39 23 8 31 -1 34 -36 2 -19 8 -23 37 -26 46 -3 92 -22 85 -34 -3
-5 -12 -7 -20 -4 -8 3 -14 -1 -14 -8 0 -8 7 -16 15 -20 8 -3 15 -12 15 -20 0
-8 9 -18 21 -21 17 -6 19 -12 13 -38 -10 -46 -74 -102 -74 -65 0 9 -3 9 -12 0
-7 -7 -15 -12 -19 -12 -13 0 -59 46 -59 59 0 16 -17 14 -24 -4 -3 -8 -1 -15 5
-15 6 0 7 -4 4 -10 -3 -5 1 -10 9 -10 22 0 30 -19 11 -27 -10 -3 -21 0 -25 7
-6 10 -13 8 -31 -9 -12 -11 -25 -18 -28 -14 -9 13 -39 14 -46 3 -3 -5 -12 -10
-18 -10 -7 1 -6 5 4 13 23 18 30 44 14 57 -10 8 -16 7 -23 -6 -12 -21 -32 -10
-32 18 0 26 31 78 46 78 6 0 17 6 23 14 16 19 -5 32 -25 15 -12 -10 -13 -9 -8
7 4 10 4 16 -1 12 -4 -4 -9 -18 -10 -30 -1 -13 -3 -26 -4 -31 0 -4 -12 -5 -25
-3 -16 3 -30 -3 -45 -20 -11 -13 -26 -24 -32 -24 -7 0 -6 -9 4 -24 15 -22 14
-25 -9 -47 -13 -12 -24 -29 -24 -37 0 -8 -6 -12 -14 -9 -10 4 -19 -4 -28 -23
-9 -22 -19 -28 -40 -28 -16 1 -31 5 -34 10 -3 4 -10 6 -15 2 -5 -3 -7 -10 -4
-15 4 -5 0 -9 -7 -9 -8 0 -9 -3 -3 -8 6 -4 16 -15 24 -24 12 -16 9 -22 -20
-49 -18 -17 -35 -27 -37 -21 -4 12 -75 -12 -80 -27 -5 -15 -22 -14 -22 2 0 6
7 20 14 30 12 15 18 16 35 7 14 -7 21 -7 21 0 0 5 7 10 17 10 9 0 13 3 10 7
-4 3 -2 12 4 19 13 16 2 37 -14 28 -7 -3 -1 4 13 16 25 21 25 21 1 10 -19 -10
-25 -9 -32 1 -7 11 -12 12 -29 1 -30 -18 -24 0 10 33 16 15 27 32 24 37 -4 6
8 8 25 6 25 -2 37 3 51 22 18 24 19 24 39 6 20 -18 21 -18 32 7 7 15 16 24 21
21 6 -4 8 2 6 12 -2 11 -9 18 -16 17 -6 -2 -9 4 -6 11 3 8 1 24 -6 35 -8 17
-8 21 4 21 7 0 16 -6 19 -14 6 -15 47 -11 47 5 0 15 -41 31 -66 25 -26 -7 -34
11 -10 20 8 3 18 20 22 37 3 18 11 35 16 38 5 3 -2 17 -16 30 -14 13 -26 29
-26 34 0 6 -17 30 -39 54 -26 30 -40 39 -44 30 -3 -8 -6 -2 -6 14 -1 15 -5 27
-11 27 -5 0 -10 7 -10 15 0 8 7 15 15 15 8 0 15 5 15 10 0 6 10 4 23 -5 13 -8
26 -12 29 -9 4 3 16 1 27 -6 22 -11 28 -1 10 17 -8 8 -3 13 19 18 18 3 32 14
35 26 3 12 14 19 31 19 14 0 29 6 33 14 7 12 34 26 41 21 1 -1 5 -13 7 -25z
m50 10 c-3 -5 -10 -10 -16 -10 -5 0 -9 5 -9 10 0 6 7 10 16 10 8 0 12 -4 9
-10z m435 0 c0 -5 -10 -15 -22 -21 -23 -12 -23 -12 -4 10 21 23 26 26 26 11z
m-1030 -25 c0 -9 -6 -12 -17 -8 -11 4 -14 3 -9 -5 4 -7 2 -12 -3 -12 -13 0
-13 3 -5 24 8 20 34 21 34 1z m-1022 -23 c2 -7 -3 -12 -12 -12 -9 0 -16 7 -16
16 0 17 22 14 28 -4z m1946 -39 c-17 -27 -34 -27 -34 0 0 27 19 40 35 25 6 -5
6 -14 -1 -25z m-2067 21 c-3 -3 -12 -4 -19 -1 -8 3 -5 6 6 6 11 1 17 -2 13 -5z
m1766 -19 c27 -26 36 -42 17 -30 -5 3 -10 1 -10 -4 0 -6 -7 -11 -15 -11 -9 0
-15 9 -15 25 0 16 -6 25 -15 25 -8 0 -15 5 -15 10 0 18 25 11 53 -15z m-1388
5 c3 -5 2 -10 -4 -10 -5 0 -13 5 -16 10 -3 6 -2 10 4 10 5 0 13 -4 16 -10z
m1439 -5 c-4 -8 -10 -12 -15 -9 -14 8 -10 24 6 24 9 0 12 -6 9 -15z m36 -11
c0 -8 -4 -12 -10 -9 -5 3 -10 10 -10 16 0 5 5 9 10 9 6 0 10 -7 10 -16z m360
-44 c13 -8 12 -10 -2 -10 -10 0 -18 -8 -18 -17 0 -12 -3 -14 -10 -7 -11 11 -4
44 9 44 3 0 13 -5 21 -10z m-190 -143 c0 -4 -6 -2 -14 5 -8 7 -12 17 -9 22 5
8 23 -12 23 -27z m20 -17 c0 -5 -5 -10 -11 -10 -5 0 -7 5 -4 10 3 6 8 10 11
10 2 0 4 -4 4 -10z m545 -20 c-3 -5 -11 -10 -16 -10 -6 0 -7 5 -4 10 3 6 11
10 16 10 6 0 7 -4 4 -10z m-90 -19 c3 -5 1 -12 -5 -16 -5 -3 -10 1 -10 9 0 18
6 21 15 7z m-1075 -162 c-7 -11 -14 -18 -17 -15 -3 3 0 12 7 21 18 21 23 19
10 -6z m-117 -206 c5 -26 2 -42 -7 -52 -11 -10 -12 -20 -5 -39 11 -28 -5 -85
-33 -118 -10 -11 -18 -26 -18 -34 0 -10 -5 -9 -18 4 -18 15 -20 14 -45 -16
-15 -17 -27 -35 -27 -39 0 -15 -29 -17 -66 -4 -22 7 -39 19 -39 25 0 7 -8 18
-17 24 -14 8 -21 6 -32 -9 -8 -11 -18 -16 -23 -11 -4 5 -2 11 5 13 6 3 12 11
12 18 0 7 11 16 25 19 14 4 25 12 25 19 0 6 10 24 23 39 17 21 33 28 67 30 37
3 46 7 48 25 2 12 15 26 33 33 27 12 41 40 19 40 -7 0 -7 6 0 20 6 11 17 20
26 20 8 0 17 7 20 15 10 26 21 17 27 -22z m1307 -9 c0 -8 -4 -14 -10 -14 -5 0
-10 9 -10 21 0 11 5 17 10 14 6 -3 10 -13 10 -21z m155 -15 c-10 -15 -25 -10
-19 6 4 8 10 12 15 9 5 -3 7 -10 4 -15z m-4080 -29 c3 -5 -1 -10 -10 -10 -9 0
-13 5 -10 10 3 6 8 10 10 10 2 0 7 -4 10 -10z m85 -80 c0 -5 -4 -10 -10 -10
-5 0 -10 5 -10 10 0 6 5 10 10 10 6 0 10 -4 10 -10z m3495 -160 c-3 -5 -12
-10 -18 -10 -7 0 -6 4 3 10 19 12 23 12 15 0z m176 0 c21 -12 24 -27 9 -50 -9
-13 -13 -11 -29 9 -10 14 -17 31 -14 38 6 16 9 16 34 3z m-371 -49 c0 -3 -6
-14 -13 -23 -12 -15 -14 -15 -24 1 -8 13 -8 22 -1 29 10 10 38 6 38 -7z m78
-9 c-3 -18 -50 -24 -60 -9 -11 17 -1 24 32 24 22 0 30 -5 28 -15z m272 -23 c0
-24 -23 -21 -28 4 -2 10 3 17 12 17 10 0 16 -9 16 -21z m-400 1 c0 -5 -5 -10
-11 -10 -5 0 -7 5 -4 10 3 6 8 10 11 10 2 0 4 -4 4 -10z m0 -50 c0 -5 -2 -10
-4 -10 -3 0 -8 5 -11 10 -3 6 -1 10 4 10 6 0 11 -4 11 -10z m557 4 c-3 -3 -12
-4 -19 -1 -8 3 -5 6 6 6 11 1 17 -2 13 -5z m-1707 -18 c0 -18 -17 -29 -30 -21
-8 5 -7 11 1 21 15 18 29 18 29 0z m990 0 c0 -11 -19 -15 -25 -6 -3 5 1 10 9
10 9 0 16 -2 16 -4z m260 -56 c0 -5 -4 -10 -10 -10 -5 0 -10 5 -10 10 0 6 5
10 10 10 6 0 10 -4 10 -10z m-273 -38 c14 -23 1 -47 -21 -39 -19 7 -22 57 -3
57 7 0 17 -8 24 -18z m558 8 c3 -5 1 -10 -4 -10 -6 0 -11 5 -11 10 0 6 2 10 4
10 3 0 8 -4 11 -10z m-315 -27 c0 -5 -5 -15 -10 -23 -8 -12 -10 -11 -10 8 0
12 5 22 10 22 6 0 10 -3 10 -7z m-238 -53 c-1 -7 2 -18 9 -26 6 -8 8 -25 5
-39 -5 -21 -3 -25 17 -25 20 0 24 5 25 37 2 59 18 67 77 35 l50 -27 1 -67 c1
-75 -13 -91 -58 -67 -40 22 -58 18 -73 -16 -16 -39 -25 -46 -53 -38 -19 4 -21
12 -20 54 0 33 -5 56 -16 68 -9 10 -14 25 -10 35 4 10 1 16 -9 16 -18 0 -40
25 -35 41 3 8 9 6 20 -5 24 -24 36 -20 43 15 4 17 12 28 18 26 7 -3 11 -10 9
-17z m218 -10 c0 -5 -2 -10 -4 -10 -3 0 -8 5 -11 10 -3 6 -1 10 4 10 6 0 11
-4 11 -10z m44 -101 c-7 -11 -34 -12 -34 -1 0 14 11 21 26 15 8 -3 11 -9 8
-14z m-444 -60 c0 -10 -4 -19 -10 -19 -5 0 -10 12 -10 26 0 14 4 23 10 19 6
-3 10 -15 10 -26z m566 8 c-3 -12 1 -35 9 -51 19 -35 19 -36 -2 -35 -10 0 -29
14 -42 31 l-25 31 30 23 c36 29 38 29 30 1z m-213 -96 c3 -13 1 -18 -8 -14
-19 7 -27 33 -11 33 8 0 16 -9 19 -19z m-1700 -243 c-6 -36 -19 -55 -29 -45
-6 6 22 77 31 77 3 0 2 -15 -2 -32z m-58 -118 c-3 -5 -11 -10 -16 -10 -6 0 -7
5 -4 10 3 6 11 10 16 10 6 0 7 -4 4 -10z m-238 -42 c-3 -8 -6 -5 -6 6 -1 11 2
17 5 13 3 -3 4 -12 1 -19z m76 -14 c11 -11 -3 -24 -18 -18 -8 4 -12 10 -9 15
6 11 18 12 27 3z m361 -9 c3 -8 1 -15 -4 -15 -6 0 -10 7 -10 15 0 8 2 15 4 15
2 0 6 -7 10 -15z m-160 -60 c3 -9 0 -15 -10 -15 -8 0 -13 -4 -9 -9 3 -5 -10
-9 -30 -8 -39 2 -41 16 -4 34 32 17 46 16 53 -2z m-114 -35 c0 -5 -5 -10 -11
-10 -5 0 -7 5 -4 10 3 6 8 10 11 10 2 0 4 -4 4 -10z m1200 -72 c0 -5 7 -8 15
-8 8 0 21 -13 30 -30 14 -26 14 -30 0 -42 -9 -7 -23 -19 -31 -27 -11 -10 -18
-11 -26 -3 -8 8 -15 8 -24 1 -7 -5 -4 6 6 27 19 36 19 37 0 62 -29 36 -27 53
5 39 14 -7 25 -15 25 -19z m910 13 c0 -4 -5 -12 -12 -19 -8 -8 -8 -12 -1 -12
6 0 13 -13 16 -28 5 -25 9 -28 36 -24 23 3 31 0 31 -11 0 -8 2 -27 5 -43 3
-16 1 -35 -3 -43 -13 -19 -52 3 -52 30 0 12 -8 23 -20 26 -11 3 -20 14 -20 24
0 11 -4 19 -8 19 -4 0 -8 16 -9 35 -1 19 4 35 9 35 6 0 8 7 5 14 -4 10 -1 13
9 9 7 -3 14 -8 14 -12z m55 10 c3 -5 1 -12 -5 -16 -5 -3 -10 1 -10 9 0 18 6
21 15 7z m-693 -58 c9 -21 16 -47 17 -58 0 -11 2 -31 3 -45 4 -33 -27 -40 -36
-7 -3 13 -15 28 -27 33 -16 7 -23 21 -26 48 -7 71 43 92 69 29z m-144 10 c2
-8 -6 -13 -22 -13 -19 0 -24 4 -19 15 6 18 34 16 41 -2z m-2528 -23 c0 -5 -4
-10 -10 -10 -5 0 -10 5 -10 10 0 6 5 10 10 10 6 0 10 -4 10 -10z m3259 -19 c0
-10 -2 -11 -6 -3 -2 6 -11 12 -19 12 -8 0 -14 4 -14 9 0 5 9 7 20 4 11 -3 20
-13 19 -22z m-1179 -11 c0 -5 -4 -10 -10 -10 -5 0 -10 5 -10 10 0 6 5 10 10
10 6 0 10 -4 10 -10z m-82 -51 c-18 -12 -23 17 -6 38 12 15 13 14 16 -7 2 -12
-2 -27 -10 -31z m900 8 c29 7 28 -8 -3 -45 -14 -17 -25 -35 -25 -41 0 -22 -28
-10 -38 17 -21 56 -22 62 -7 62 8 0 15 7 15 17 0 15 1 15 18 0 11 -10 26 -14
40 -10z m1103 6 c7 -10 10 -15 5 -11 -10 8 -28 -8 -45 -40 -12 -22 -41 -31
-41 -12 0 6 5 10 10 10 6 0 10 5 10 11 0 12 32 58 41 59 4 0 13 -8 20 -17z
m-704 -20 c4 -10 20 -28 35 -41 35 -30 39 -67 6 -58 -13 3 -29 6 -36 6 -9 0
-11 7 -7 21 5 14 0 28 -15 44 -12 13 -19 28 -15 34 9 16 25 13 32 -6z m-1207
-13 c0 -5 -7 -10 -15 -10 -8 0 -15 5 -15 10 0 6 7 10 15 10 8 0 15 -4 15 -10z
m1820 -20 c0 -5 -4 -10 -10 -10 -5 0 -10 5 -10 10 0 6 5 10 10 10 6 0 10 -4
10 -10z m-1462 -18 c18 -3 15 -19 -10 -42 -20 -18 -23 -19 -40 -3 -10 9 -18
24 -18 33 0 16 13 18 68 12z m362 -2 c0 -5 -4 -10 -10 -10 -5 0 -10 5 -10 10
0 6 5 10 10 10 6 0 10 -4 10 -10z m-34 -15 c17 -16 14 -18 -10 -9 -9 3 -16 10
-16 15 0 13 9 11 26 -6z m144 11 c0 -2 -7 -7 -16 -10 -8 -3 -12 -2 -9 4 6 10
25 14 25 6z m620 -91 c0 -13 11 -35 25 -49 30 -30 31 -36 5 -29 -11 3 -20 0
-20 -6 0 -6 5 -11 10 -11 6 0 10 -11 10 -25 0 -20 -5 -25 -25 -25 -14 0 -25 5
-25 11 0 7 -7 17 -16 24 -15 11 -15 14 0 43 9 18 13 33 9 33 -5 1 -15 2 -23 3
-8 0 -13 8 -11 16 3 13 9 58 10 84 2 20 51 -47 51 -69z m-1187 49 c3 -3 3 -13
0 -21 -5 -12 -7 -12 -14 -1 -15 23 -4 40 14 22z m41 -47 c-21 -12 -27 -3 -19
24 7 22 8 22 21 4 12 -17 12 -20 -2 -28z m1196 5 c0 -13 -12 -22 -22 -16 -10
6 -1 24 13 24 5 0 9 -4 9 -8z m-1236 -37 c13 -13 16 -13 30 1 15 14 16 13 16
-6 0 -12 5 -30 10 -40 8 -15 6 -21 -10 -30 -11 -6 -20 -7 -20 -3 0 5 -13 17
-30 26 -28 17 -39 45 -23 60 9 9 9 9 27 -8z m1106 -59 c0 -3 -4 -8 -10 -11 -5
-3 -10 -1 -10 4 0 6 5 11 10 11 6 0 10 -2 10 -4z m270 -16 c0 -11 -7 -20 -15
-20 -18 0 -19 12 -3 28 16 16 18 15 18 -8z m-233 -26 c-3 -4 -14 -3 -24 0 -15
6 -15 8 -3 16 16 10 39 -4 27 -16z m-1127 -16 c0 -12 -38 -48 -51 -48 -16 0
-39 12 -39 21 0 11 73 49 83 42 4 -2 7 -9 7 -15z m890 -8 c27 -19 29 -19 39
-3 5 10 13 14 18 10 4 -5 0 -14 -10 -21 -21 -16 -22 -26 -2 -26 8 0 16 -6 17
-12 0 -7 2 -18 2 -25 2 -16 37 -53 51 -53 6 0 11 10 11 23 -1 17 4 22 22 21
12 0 22 3 22 8 0 4 7 8 15 8 23 0 18 -16 -10 -34 -16 -10 -25 -26 -25 -42 0
-30 38 -84 60 -84 8 0 27 -8 40 -17 14 -10 27 -17 30 -16 10 3 70 -58 65 -67
-3 -5 -1 -11 5 -15 5 -3 10 -16 10 -28 0 -19 36 -55 45 -45 2 2 6 24 10 51 5
32 4 47 -4 47 -6 0 -11 9 -11 20 0 11 -6 23 -14 26 -11 4 -14 24 -13 87 1 45
-2 92 -6 105 -7 18 -5 22 11 22 26 0 42 21 36 47 -8 28 8 36 34 17 13 -9 22
-26 22 -42 0 -15 9 -40 20 -57 23 -35 26 -68 6 -84 -8 -7 -13 -20 -11 -29 15
-86 16 -102 4 -102 -8 0 -5 -5 5 -13 17 -12 18 -21 10 -73 -7 -46 -13 -60 -28
-62 -16 -3 -18 0 -12 22 4 16 2 26 -5 26 -7 0 -8 11 -4 30 5 22 3 30 -7 30 -9
0 -15 -14 -16 -37 -2 -21 -6 -40 -10 -43 -4 -3 -7 -14 -7 -25 0 -16 -6 -20
-32 -19 -29 2 -31 0 -23 -16 15 -29 12 -40 -15 -50 -14 -5 -24 -15 -23 -22 2
-8 -7 -13 -22 -13 -20 0 -26 -7 -31 -35 -3 -19 -10 -47 -14 -62 -5 -18 -3 -28
4 -28 6 0 11 3 10 8 -2 10 13 52 18 52 2 0 13 -4 23 -10 24 -13 78 16 86 47 3
11 13 23 22 26 10 3 25 8 35 12 22 9 23 -11 1 -32 -8 -9 -13 -24 -11 -35 3
-10 1 -16 -3 -13 -5 3 -11 -4 -15 -15 -6 -18 -17 -24 -37 -21 -5 0 -8 -3 -8
-8 0 -5 -13 -11 -29 -14 -17 -4 -32 -14 -36 -26 -5 -17 -105 -80 -105 -66 0 2
-33 -28 -72 -69 -55 -54 -93 -83 -152 -112 l-80 -39 -135 0 c-134 0 -137 1
-204 33 -236 116 -353 386 -272 629 28 81 75 160 124 207 17 17 31 36 31 43 0
8 5 11 10 8 6 -3 13 1 16 9 3 9 10 14 14 11 5 -3 36 8 70 24 124 59 291 61
415 7 l52 -23 -5 23 c-2 13 -8 21 -14 18 -5 -3 -15 0 -23 6 -8 6 -19 9 -25 5
-11 -7 -14 17 -3 28 9 10 12 9 43 -13z m570 -14 c0 -3 -4 -8 -10 -11 -5 -3
-10 -1 -10 4 0 6 5 11 10 11 6 0 10 -2 10 -4z m-1190 -36 c8 -15 6 -21 -9 -30
-26 -13 -28 -13 -35 5 -14 39 24 62 44 25z m863 -5 c-12 -55 -18 -57 -32 -9
-7 26 -6 29 14 29 17 0 21 -5 18 -20z m-4067 -123 c-8 -9 -19 -13 -22 -9 -10
9 16 38 28 31 6 -4 4 -13 -6 -22z m2902 6 c-3 -7 -13 -15 -24 -17 -16 -3 -17
-1 -5 13 16 19 34 21 29 4z m-15 -323 c12 -14 33 -27 46 -30 32 -6 33 -7 18
-38 -14 -31 -22 -34 -35 -11 -8 15 -10 15 -15 0 -4 -10 -3 -15 3 -11 13 8 4
-65 -10 -79 -7 -7 -10 -6 -10 3 0 7 -4 10 -9 7 -13 -8 -28 13 -38 54 -7 25 -5
48 6 82 9 26 17 48 19 48 2 0 13 -11 25 -25z m1534 -31 c-9 -9 -28 6 -21 18 4
6 10 6 17 -1 6 -6 8 -13 4 -17z m-1585 -146 c-9 -9 -15 -9 -24 0 -9 9 -7 12
12 12 19 0 21 -3 12 -12z m-8 -30 c18 -25 21 -74 6 -83 -13 -8 -13 -45 -1 -45
5 0 12 9 16 19 8 26 35 16 35 -13 0 -25 -5 -32 -49 -71 l-33 -30 6 32 c7 30
-3 47 -28 48 -30 0 -2 54 35 67 10 4 7 12 -13 31 -27 25 -35 47 -21 60 12 13
32 7 47 -15z m1546 -47 c0 -10 -7 -24 -15 -31 -13 -10 -15 -9 -15 12 0 14 3
28 7 31 12 13 23 7 23 -12z m-161 -44 c8 -11 7 -18 -7 -31 -23 -20 -31 -14
-24 19 5 28 14 31 31 12z m121 -12 c0 -8 -6 -15 -14 -15 -8 0 -16 7 -20 15 -4
10 1 15 14 15 11 0 20 -7 20 -15z m-272 -57 c-13 -26 -37 -22 -44 8 -5 18 -1
29 12 38 16 12 20 11 30 -8 6 -13 7 -28 2 -38z m-884 26 c9 -3 16 -15 16 -26
0 -30 -54 -21 -58 10 -3 23 11 28 42 16z m-54 -75 c0 -13 -27 -11 -36 3 -4 7
-3 8 4 4 7 -4 12 -2 12 4 0 6 5 8 10 5 6 -3 10 -10 10 -16z m-133 -131 c-3 -7
-5 -2 -5 12 0 14 2 19 5 13 2 -7 2 -19 0 -25z m1119 -45 c-3 -21 -6 -47 -6
-58 -1 -20 -1 -20 -15 -1 -8 10 -12 23 -9 28 3 5 0 16 -7 25 -11 13 -10 17 6
29 30 22 38 17 31 -23z m-836 -399 c0 -6 -7 -11 -15 -11 -16 0 -18 7 -9 32 5
13 8 14 15 3 5 -7 9 -18 9 -24z m-603 -40 c-9 -9 -28 6 -21 18 4 6 10 6 17 -1
6 -6 8 -13 4 -17z m233 4 c0 -19 -2 -20 -10 -8 -13 19 -13 30 0 30 6 0 10 -10
10 -22z m60 -78 c0 -5 -5 -10 -11 -10 -5 0 -7 5 -4 10 3 6 8 10 11 10 2 0 4
-4 4 -10z"/>
<path d="M5965 4290 c-3 -5 -4 -14 0 -19 3 -6 -4 -15 -15 -21 -26 -14 -26 -34
0 -27 14 4 20 0 21 -11 1 -10 5 -1 9 18 5 20 5 36 0 38 -5 2 -6 10 -3 18 6 16
-3 19 -12 4z"/>
<path d="M6080 4210 c0 -5 5 -10 11 -10 5 0 7 5 4 10 -3 6 -8 10 -11 10 -2 0
-4 -4 -4 -10z"/>
<path d="M6035 4070 c3 -5 13 -10 21 -10 8 0 13 -4 10 -9 -3 -5 1 -11 9 -15
23 -8 18 11 -7 28 -25 18 -42 21 -33 6z"/>
<path d="M5945 4051 c-8 -15 26 -44 38 -32 6 6 5 15 -6 25 -18 18 -24 20 -32
7z"/>
<path d="M6280 4049 c0 -6 7 -9 15 -5 8 3 15 1 15 -5 0 -12 49 -59 61 -59 5 0
9 8 9 18 0 23 -35 56 -49 47 -6 -3 -11 -1 -11 4 0 6 -9 11 -20 11 -11 0 -20
-5 -20 -11z"/>
<path d="M6210 4010 c0 -5 5 -10 10 -10 6 0 10 5 10 10 0 6 -4 10 -10 10 -5 0
-10 -4 -10 -10z"/>
<path d="M6240 3994 c0 -22 2 -25 15 -14 8 7 15 19 15 26 0 8 -7 14 -15 14
-10 0 -15 -10 -15 -26z"/>
<path d="M6131 3968 c-9 -25 -5 -41 9 -33 5 3 11 1 15 -5 3 -5 11 -10 17 -10
6 0 1 11 -11 24 -13 14 -20 29 -16 35 3 6 4 11 0 11 -3 0 -9 -10 -14 -22z"/>
<path d="M5650 3509 c0 -5 5 -7 10 -4 6 3 10 8 10 11 0 2 -4 4 -10 4 -5 0 -10
-5 -10 -11z"/>
<path d="M6320 2986 c0 -10 9 -16 21 -16 24 0 21 23 -4 28 -10 2 -17 -3 -17
-12z"/>
<path d="M6876 1063 c-6 -14 -5 -15 5 -6 7 7 10 15 7 18 -3 3 -9 -2 -12 -12z"/>
<path d="M5700 1202 c0 -5 7 -13 16 -16 10 -4 14 -1 12 6 -5 15 -28 23 -28 10z"/>
<path d="M6710 4860 c-21 -17 -23 -21 -10 -30 11 -7 16 -5 18 5 2 8 13 15 24
15 11 0 18 5 16 12 -7 19 -22 19 -48 -2z"/>
<path d="M8060 4870 c0 -5 5 -10 11 -10 5 0 7 5 4 10 -3 6 -8 10 -11 10 -2 0
-4 -4 -4 -10z"/>
<path d="M9020 4866 c0 -9 5 -16 10 -16 6 0 10 4 10 9 0 6 -4 13 -10 16 -5 3
-10 -1 -10 -9z"/>
<path d="M8215 4774 c-19 -20 -15 -38 10 -42 19 -4 35 13 35 41 0 21 -23 22
-45 1z"/>
<path d="M7860 4770 c0 -5 5 -10 11 -10 5 0 7 5 4 10 -3 6 -8 10 -11 10 -2 0
-4 -4 -4 -10z"/>
<path d="M7925 4750 c-11 -17 5 -32 21 -19 7 6 11 15 8 20 -7 12 -21 11 -29
-1z"/>
<path d="M8320 4715 c0 -8 5 -15 10 -15 6 0 10 7 10 15 0 8 -4 15 -10 15 -5 0
-10 -7 -10 -15z"/>
<path d="M8045 4700 c3 -5 8 -10 11 -10 2 0 4 5 4 10 0 6 -5 10 -11 10 -5 0
-7 -4 -4 -10z"/>
<path d="M6731 4664 c-15 -19 -27 -25 -42 -21 -12 3 -18 2 -13 -3 13 -12 74
-23 75 -13 3 18 5 63 3 63 -2 0 -12 -12 -23 -26z"/>
<path d="M7835 4670 c-3 -5 -1 -10 4 -10 6 0 11 5 11 10 0 6 -2 10 -4 10 -3 0
-8 -4 -11 -10z"/>
<path d="M6970 4660 c-9 -6 -10 -10 -3 -10 6 0 15 5 18 10 8 12 4 12 -15 0z"/>
<path d="M8440 4654 c0 -8 5 -12 10 -9 6 3 10 10 10 16 0 5 -4 9 -10 9 -5 0
-10 -7 -10 -16z"/>
<path d="M8598 4610 c-11 -12 -13 -22 -7 -26 13 -7 39 14 39 32 0 20 -13 17
-32 -6z"/>
<path d="M8473 4605 c-3 -9 -3 -19 1 -22 3 -3 1 -12 -5 -19 -6 -7 -12 -23 -14
-36 -1 -13 -6 -35 -10 -50 -6 -22 -4 -28 9 -28 9 0 16 6 16 14 0 7 7 19 16 27
11 9 15 25 12 51 -3 31 0 38 15 38 15 0 16 3 7 20 -13 24 -38 26 -47 5z"/>
<path d="M8052 4595 c4 -4 3 -14 -3 -21 -13 -16 -4 -34 17 -34 11 0 12 4 5 19
-6 10 -8 21 -5 24 3 3 -1 8 -8 13 -7 4 -10 4 -6 -1z"/>
<path d="M9580 4551 c0 -12 5 -21 10 -21 6 0 10 6 10 14 0 8 -4 18 -10 21 -5
3 -10 -3 -10 -14z"/>
<path d="M7917 4539 c6 -22 19 -25 26 -5 3 8 -2 16 -12 19 -14 3 -17 0 -14
-14z"/>
<path d="M9444 4545 c-4 -8 -10 -12 -15 -9 -5 3 -9 2 -8 -3 4 -21 -2 -33 -15
-33 -13 0 -26 -23 -32 -56 -1 -7 6 -9 17 -7 10 3 19 8 19 12 0 3 10 22 22 41
12 19 22 43 23 53 2 21 -4 22 -11 2z"/>
<path d="M8077 4509 c-12 -13 -13 -19 -4 -20 6 0 20 -2 30 -4 9 -2 17 1 17 5
0 5 2 15 5 22 8 21 -30 19 -48 -3z"/>
<path d="M8546 4491 c-3 -5 1 -11 9 -15 9 -3 15 0 15 9 0 16 -16 20 -24 6z"/>
<path d="M8630 4490 c0 -5 5 -10 10 -10 6 0 10 5 10 10 0 6 -4 10 -10 10 -5 0
-10 -4 -10 -10z"/>
<path d="M7966 4465 c-3 -9 -14 -15 -23 -13 -14 2 -18 -3 -16 -27 1 -16 7 -31
13 -33 5 -2 10 -8 10 -13 0 -6 -4 -8 -9 -4 -5 3 -13 0 -17 -6 -3 -6 -1 -15 6
-19 12 -8 11 -25 -5 -77 -7 -21 -6 -22 26 -10 19 6 35 12 37 13 2 1 -4 13 -12
27 -21 31 -7 47 39 47 12 0 11 4 -5 20 -23 23 -24 33 -10 60 7 13 7 21 0 25
-6 4 -8 11 -5 16 4 5 0 9 -8 9 -8 0 -18 -7 -21 -15z"/>
<path d="M7375 4460 c-3 -5 -2 -10 4 -10 5 0 13 5 16 10 3 6 2 10 -4 10 -5 0
-13 -4 -16 -10z"/>
<path d="M7453 4412 c-16 -10 -25 -54 -14 -71 12 -18 36 -2 44 29 6 24 -14 52
-30 42z"/>
<path d="M7316 4285 c-17 -13 -17 -15 -2 -37 9 -12 16 -26 16 -30 0 -16 -27
-7 -50 16 l-22 25 -39 -31 c-37 -30 -58 -72 -56 -114 1 -16 6 -19 24 -16 13 2
30 -1 38 -8 11 -9 15 -9 15 -1 0 11 39 9 59 -4 5 -3 15 3 21 12 7 12 10 13 7
3 -2 -8 -12 -19 -23 -25 -18 -10 -18 -11 4 -32 12 -13 25 -23 27 -23 3 0 8 0
12 0 4 0 -3 -9 -15 -20 -27 -25 -27 -26 -3 -26 11 0 17 4 15 8 -3 4 -1 8 4 8
5 0 9 -12 9 -27 0 -16 -2 -23 -4 -16 -3 8 -13 2 -28 -15 -13 -15 -19 -30 -13
-33 6 -4 4 -12 -5 -20 -7 -8 -12 -21 -10 -29 3 -12 2 -11 -6 1 -6 9 -9 26 -6
37 2 12 0 24 -5 27 -4 3 -7 -3 -5 -12 1 -10 -4 -33 -11 -51 -15 -38 -12 -52
17 -70 18 -11 24 -11 38 2 10 9 32 16 49 16 21 0 35 7 42 21 17 30 35 18 36
-24 1 -35 -5 -41 -33 -38 -17 2 -16 -5 3 -28 16 -18 17 -18 35 0 40 40 72 15
39 -31 -23 -33 -20 -51 8 -43 10 2 24 -3 31 -11 19 -22 24 -20 44 14 10 17 26
30 36 30 11 0 22 7 25 16 9 23 0 29 -19 14 -13 -11 -18 -9 -34 9 -19 22 -41
28 -41 11 0 -5 -5 -10 -11 -10 -8 0 -8 4 0 14 8 9 8 16 2 20 -7 5 -7 15 0 33
6 15 7 38 4 51 -5 19 -3 23 9 19 17 -7 22 8 6 18 -5 3 -9 21 -7 38 2 29 -1 32
-30 35 -28 3 -33 0 -33 -17 0 -12 -4 -21 -10 -21 -13 0 -13 27 -1 35 10 6 7
37 -5 57 -4 7 -3 8 4 4 7 -4 12 -3 12 3 0 5 -6 12 -12 14 -8 4 -4 8 9 12 13 4
20 12 17 17 -4 6 -7 27 -8 49 -1 37 -31 79 -56 79 -5 0 -10 6 -10 13 0 7 -3 8
-8 2 -12 -17 -38 -13 -51 6 -6 11 -7 19 -2 19 16 0 23 52 9 61 -18 12 -30 11
-52 -6z m50 -120 c9 -8 12 -19 9 -25 -7 -11 -35 12 -35 29 0 15 9 14 26 -4z
m29 -55 c3 -5 1 -10 -4 -10 -6 0 -11 5 -11 10 0 6 2 10 4 10 3 0 8 -4 11 -10z
m-20 -36 c0 -10 -4 -19 -10 -19 -5 0 -16 -4 -23 -9 -21 -13 -29 4 -9 18 9 7
17 19 17 25 0 7 6 11 13 9 6 -3 12 -13 12 -24z m55 -59 c0 -9 -6 -12 -15 -9
-8 4 -15 10 -15 15 0 5 7 9 15 9 8 0 15 -7 15 -15z m-50 -102 c25 -22 25 -35
1 -50 -20 -13 -31 -8 -31 15 0 9 6 12 18 8 16 -6 16 -5 0 8 -16 12 -25 36 -13
36 3 0 14 -8 25 -17z m90 -33 c0 -5 -4 -10 -10 -10 -5 0 -10 5 -10 10 0 6 5
10 10 10 6 0 10 -4 10 -10z m-170 -78 c-6 -2 -7 -9 -3 -15 4 -7 -1 -6 -10 2
-9 7 -17 20 -17 27 0 12 4 12 20 2 11 -7 16 -14 10 -16z"/>
<path d="M6765 4270 c-3 -5 -1 -10 4 -10 6 0 11 5 11 10 0 6 -2 10 -4 10 -3 0
-8 -4 -11 -10z"/>
<path d="M7406 4262 c-3 -6 -1 -14 5 -17 15 -10 25 3 12 16 -7 7 -13 7 -17 1z"/>
<path d="M8105 4210 c-3 -5 1 -10 9 -10 9 0 16 5 16 10 0 6 -4 10 -9 10 -6 0
-13 -4 -16 -10z"/>
<path d="M8379 4183 c-1 -4 -1 -12 0 -16 1 -4 -6 -10 -14 -12 -8 -3 -22 -7
-31 -10 -12 -4 -13 -7 -2 -19 9 -10 15 -11 20 -2 4 6 18 11 30 11 18 0 23 6
23 24 0 22 -23 44 -26 24z"/>
<path d="M6755 4150 c-3 -5 1 -10 10 -10 9 0 13 5 10 10 -3 6 -8 10 -10 10 -2
0 -7 -4 -10 -10z"/>
<path d="M9684 4043 c-4 -16 -8 -37 -9 -48 0 -11 -4 -26 -8 -32 -10 -16 -5
-16 27 -2 22 10 23 15 14 38 -6 14 -10 36 -9 49 1 30 -5 28 -15 -5z"/>
<path d="M7793 4008 c4 -12 1 -18 -9 -18 -11 0 -14 -6 -10 -16 3 -9 6 -19 6
-22 0 -4 7 6 15 22 12 22 13 32 4 40 -9 8 -10 7 -6 -6z"/>
<path d="M7750 3994 c0 -14 3 -14 15 -4 8 7 15 14 15 16 0 2 -7 4 -15 4 -8 0
-15 -7 -15 -16z"/>
<path d="M6902 3944 c-12 -8 -22 -23 -22 -32 1 -16 1 -16 11 1 6 10 23 17 42
18 18 0 25 3 17 6 -8 3 -17 10 -20 14 -4 5 -16 2 -28 -7z"/>
<path d="M7286 3948 c3 -4 9 -8 15 -8 5 0 9 4 9 8 0 5 -7 9 -15 9 -8 0 -12 -4
-9 -9z"/>
<path d="M7744 3945 c-10 -8 -14 -14 -9 -15 15 0 40 18 34 24 -3 3 -14 -1 -25
-9z"/>
<path d="M9466 3947 c3 -10 9 -15 12 -12 3 3 0 11 -7 18 -10 9 -11 8 -5 -6z"/>
<path d="M7090 3830 c0 -5 5 -10 11 -10 5 0 7 5 4 10 -3 6 -8 10 -11 10 -2 0
-4 -4 -4 -10z"/>
<path d="M7120 3800 c0 -5 5 -10 11 -10 5 0 7 5 4 10 -3 6 -8 10 -11 10 -2 0
-4 -4 -4 -10z"/>
<path d="M7215 3790 c-3 -5 -2 -10 4 -10 5 0 13 5 16 10 3 6 2 10 -4 10 -5 0
-13 -4 -16 -10z"/>
<path d="M9356 3782 c-3 -5 1 -9 9 -9 8 0 12 4 9 9 -3 4 -7 8 -9 8 -2 0 -6 -4
-9 -8z"/>
<path d="M9673 3773 c-12 -2 -25 -12 -28 -21 -6 -20 -60 -45 -92 -43 -11 1
-24 -2 -27 -7 -3 -5 2 -9 12 -9 34 0 43 -3 37 -12 -3 -5 4 -13 16 -16 12 -4
18 -12 15 -21 -3 -8 1 -14 10 -14 11 0 15 6 12 18 -4 14 0 18 16 18 12 -1 24
-4 27 -9 3 -4 20 -11 37 -16 29 -9 33 -7 38 14 3 13 4 30 1 37 -2 7 -1 20 4
29 10 20 -16 59 -39 58 -9 -1 -27 -4 -39 -6z"/>
<path d="M7280 3739 c0 -5 5 -7 10 -4 6 3 10 8 10 11 0 2 -4 4 -10 4 -5 0 -10
-5 -10 -11z"/>
<path d="M7360 3710 c0 -5 5 -10 11 -10 5 0 7 5 4 10 -3 6 -8 10 -11 10 -2 0
-4 -4 -4 -10z"/>
<path d="M7673 3695 c-10 -11 -9 -13 7 -12 11 1 22 7 24 14 7 17 -16 16 -31
-2z"/>
<path d="M7804 3680 c0 -24 20 -21 24 3 2 9 -3 17 -10 17 -8 0 -14 -9 -14 -20z"/>
<path d="M7315 3670 c-3 -11 -14 -20 -23 -20 -22 0 -3 -17 23 -21 32 -5 77 10
69 23 -4 7 -3 8 4 4 7 -4 17 -4 22 -1 21 13 -12 35 -51 35 -29 0 -39 -5 -44
-20z"/>
<path d="M7880 3675 c0 -9 6 -12 15 -9 8 4 12 10 9 15 -8 14 -24 10 -24 -6z"/>
<path d="M7948 3683 c-11 -3 -18 -14 -18 -28 0 -13 -8 -26 -17 -30 -17 -6 -17
-7 1 -17 13 -7 25 -7 42 2 27 15 42 42 17 33 -13 -5 -15 -1 -11 20 3 15 5 26
4 26 0 -1 -9 -3 -18 -6z"/>
<path d="M9581 3647 c-1 -11 -6 -15 -13 -11 -7 5 -8 3 -3 -5 10 -16 29 2 22
21 -4 8 -6 7 -6 -5z"/>
<path d="M7830 3622 c0 -7 4 -12 9 -12 5 0 11 -8 13 -17 2 -12 6 -14 10 -7 4
6 -1 19 -12 29 -12 10 -20 13 -20 7z"/>
<path d="M7975 3600 c-3 -5 -1 -10 4 -10 6 0 11 5 11 10 0 6 -2 10 -4 10 -3 0
-8 -4 -11 -10z"/>
<path d="M7990 3585 c-7 -9 -10 -18 -7 -21 10 -11 37 5 37 21 0 19 -14 19 -30
0z"/>
<path d="M7565 3569 c-10 -15 1 -23 20 -15 9 3 13 10 10 16 -8 13 -22 13 -30
-1z"/>
<path d="M7160 3556 c0 -8 -3 -22 -6 -30 -5 -12 -2 -15 10 -10 17 7 23 54 6
54 -5 0 -10 -6 -10 -14z"/>
<path d="M7470 3539 c0 -18 13 -39 25 -39 24 0 39 -74 23 -107 -14 -28 -6 -38
20 -24 17 9 20 8 18 -6 -2 -9 -8 -19 -14 -21 -8 -2 -8 -8 2 -18 20 -19 28 -18
21 5 -3 10 0 23 7 29 11 8 13 2 10 -30 -3 -22 1 -45 7 -51 8 -8 11 -5 11 11 0
13 6 22 15 22 8 0 15 -4 15 -8 0 -4 16 -8 36 -9 26 -1 33 2 25 10 -5 5 -21 11
-33 12 -15 1 -24 9 -26 23 -2 12 1 22 7 22 6 0 11 -5 11 -11 0 -5 5 -7 11 -3
8 5 8 8 0 14 -7 3 -9 14 -6 22 9 22 -24 51 -51 45 -17 -3 -23 1 -27 20 -4 20
-1 22 16 17 25 -8 19 17 -9 31 -10 6 -19 19 -19 30 0 17 -7 20 -47 21 -27 0
-48 -3 -48 -7z m90 -65 c0 -2 -9 -4 -21 -4 -11 0 -18 4 -14 10 5 8 35 3 35 -6z"/>
<path d="M7335 3431 c-3 -5 5 -21 18 -35 l23 -25 2 35 c2 28 -1 34 -17 34 -11
0 -22 -4 -26 -9z"/>
<path d="M7443 3393 c-7 -2 -13 -12 -13 -22 0 -9 -5 -22 -12 -29 -9 -9 -9 -12
0 -12 7 0 12 5 12 11 0 5 4 8 9 4 11 -6 20 6 26 35 4 20 0 22 -22 13z"/>
<path d="M7322 3371 c4 -13 18 -16 19 -4 0 4 -5 9 -11 12 -7 2 -11 -2 -8 -8z"/>
<path d="M7966 3294 c-3 -8 -1 -14 4 -14 5 0 7 -6 5 -12 -3 -8 4 -14 19 -14
14 -1 27 5 30 13 5 12 9 13 21 3 9 -7 15 -8 15 -2 0 5 -20 17 -44 25 -38 13
-45 13 -50 1z"/>
<path d="M7435 3280 c-3 -5 -2 -10 4 -10 5 0 13 5 16 10 3 6 2 10 -4 10 -5 0
-13 -4 -16 -10z"/>
<path d="M7490 3219 c0 -12 5 -19 12 -17 18 6 20 25 3 31 -10 5 -15 0 -15 -14z"/>
<path d="M7895 3230 c-3 -5 1 -10 9 -10 9 0 16 5 16 10 0 6 -4 10 -9 10 -6 0
-13 -4 -16 -10z"/>
<path d="M7624 3221 c5 -7 1 -9 -9 -4 -13 4 -16 1 -13 -18 2 -16 11 -25 26
-27 12 -2 22 2 22 8 0 8 10 9 31 5 24 -6 30 -4 27 6 -3 8 -18 14 -36 13 -17 0
-30 4 -29 9 1 5 -4 12 -12 15 -8 3 -11 0 -7 -7z"/>
<path d="M6876 3185 c-9 -26 -7 -32 5 -12 6 10 9 21 6 23 -2 3 -7 -2 -11 -11z"/>
<path d="M7478 3151 c-3 -32 0 -45 12 -50 14 -6 22 -22 23 -48 0 -7 3 -11 5
-8 3 3 11 0 18 -6 10 -8 15 -5 20 15 3 14 12 30 20 37 19 15 18 39 -1 39 -20
0 -55 21 -76 45 -16 18 -17 18 -21 -24z m62 -71 c0 -5 -5 -10 -11 -10 -5 0 -7
5 -4 10 3 6 8 10 11 10 2 0 4 -4 4 -10z"/>
<path d="M7515 3180 c-3 -5 1 -10 9 -10 9 0 16 5 16 10 0 6 -4 10 -9 10 -6 0
-13 -4 -16 -10z"/>
<path d="M7781 3181 c-7 -5 -10 -14 -7 -20 11 -18 25 -13 23 9 -1 11 -1 20 -2
20 0 0 -6 -4 -14 -9z"/>
<path d="M7930 3150 c0 -5 5 -10 11 -10 5 0 7 5 4 10 -3 6 -8 10 -11 10 -2 0
-4 -4 -4 -10z"/>
<path d="M7800 3086 c0 -9 5 -16 10 -16 6 0 10 4 10 9 0 6 -4 13 -10 16 -5 3
-10 -1 -10 -9z"/>
<path d="M7075 3060 c-3 -5 -1 -10 4 -10 6 0 11 5 11 10 0 6 -2 10 -4 10 -3 0
-8 -4 -11 -10z"/>
<path d="M7490 3025 c7 -9 15 -13 17 -11 7 7 -7 26 -19 26 -6 0 -6 -6 2 -15z"/>
<path d="M8830 3020 c0 -5 5 -10 11 -10 5 0 7 5 4 10 -3 6 -8 10 -11 10 -2 0
-4 -4 -4 -10z"/>
<path d="M7452 2989 c-8 -12 -9 -18 -3 -14 6 3 11 -1 11 -10 0 -8 11 -20 25
-25 14 -5 25 -14 25 -20 0 -21 30 -9 36 15 5 19 0 30 -17 45 -27 22 -39 25
-39 10 0 -5 -4 -10 -10 -10 -5 0 -7 7 -4 15 9 23 -9 18 -24 -6z"/>
<path d="M7364 2903 c1 -22 5 -27 21 -25 27 5 28 7 13 31 -18 29 -35 26 -34
-6z"/>
<path d="M7585 2910 c-3 -6 1 -7 9 -4 18 7 21 14 7 14 -6 0 -13 -4 -16 -10z"/>
<path d="M7340 2854 c0 -8 5 -12 10 -9 6 3 10 10 10 16 0 5 -4 9 -10 9 -5 0
-10 -7 -10 -16z"/>
<path d="M6463 2768 c-34 -16 -28 -26 17 -26 37 -1 39 1 30 19 -12 21 -16 22
-47 7z"/>
<path d="M6985 2770 c3 -5 11 -10 16 -10 6 0 7 5 4 10 -3 6 -11 10 -16 10 -6
0 -7 -4 -4 -10z"/>
<path d="M6250 2740 c0 -5 7 -10 15 -10 8 0 15 5 15 10 0 6 -7 10 -15 10 -8 0
-15 -4 -15 -10z"/>
<path d="M6980 2250 c0 -5 5 -10 11 -10 5 0 7 5 4 10 -3 6 -8 10 -11 10 -2 0
-4 -4 -4 -10z"/>
<path d="M7070 2240 c0 -11 7 -23 15 -26 8 -4 15 -15 15 -25 0 -10 7 -19 15
-19 8 0 15 -8 16 -17 1 -12 4 -9 8 7 4 14 4 27 -1 28 -4 2 -8 9 -8 15 -1 16
-36 57 -49 57 -6 0 -11 -9 -11 -20z"/>
<path d="M6365 2130 c3 -5 8 -10 11 -10 2 0 4 5 4 10 0 6 -5 10 -11 10 -5 0
-7 -4 -4 -10z"/>
<path d="M5697 603 c-11 -10 -8 -43 3 -43 5 0 9 11 8 25 -3 28 -2 27 -11 18z"/>
<path d="M5957 555 c3 -12 11 -22 19 -22 21 0 17 34 -4 39 -15 4 -18 1 -15
-17z"/>
</g>
</svg>
